<svg width="24" height="25" viewBox="0 0 24 25" fill="none" xmlns="http://www.w3.org/2000/svg">
  <rect x="0.5" y="1" width="23" height="23" rx="11.5" fill="#EBEDF2"/>
  <rect x="0.5" y="1" width="23" height="23" rx="11.5" stroke="#B8BDCC"/>
  <g clip-path="url(#clip0_450_492)">
    <path
      d="M15.9375 11.9375H12.5625V8.5625C12.5625 8.225 12.3375 8 12 8C11.6625 8 11.4375 8.225 11.4375 8.5625V11.9375H8.0625C7.725 11.9375 7.5 12.1625 7.5 12.5C7.5 12.8375 7.725 13.0625 8.0625 13.0625H11.4375V16.4375C11.4375 16.775 11.6625 17 12 17C12.3375 17 12.5625 16.775 12.5625 16.4375V13.0625H15.9375C16.275 13.0625 16.5 12.8375 16.5 12.5C16.5 12.1625 16.275 11.9375 15.9375 11.9375Z"
      fill="#B8BDCC"/>
  </g>
  <defs>
    <clipPath id="clip0_450_492">
      <rect width="9" height="9" fill="white" transform="translate(7.5 8)"/>
    </clipPath>
  </defs>
</svg>
