<svg width="25" height="25" viewBox="0 0 25 25" fill="none" xmlns="http://www.w3.org/2000/svg">
  <rect x="0.994141" y="1.38916" width="23" height="23" rx="11.5" fill="url(#paint0_linear_456_1301)"/>
  <rect x="0.994141" y="1.38916" width="23" height="23" rx="11.5" stroke="#12B288"/>
  <g clip-path="url(#clip0_456_1301)">
    <path
      d="M11.3692 16.8268C11.22 16.8268 11.077 16.7675 10.9715 16.662L8.15903 13.8495C8.1053 13.7976 8.06245 13.7355 8.03297 13.6669C8.00349 13.5983 7.98797 13.5245 7.98733 13.4498C7.98668 13.3751 8.00091 13.301 8.02919 13.2319C8.05748 13.1628 8.09924 13.1 8.15206 13.0472C8.20487 12.9943 8.26768 12.9526 8.33681 12.9243C8.40593 12.896 8.48 12.8818 8.55469 12.8824C8.62938 12.8831 8.70319 12.8986 8.77182 12.9281C8.84045 12.9575 8.90252 13.0004 8.9544 13.0541L11.2905 15.3896L15.9693 8.63175C16.0106 8.56911 16.0639 8.51534 16.1262 8.4736C16.1885 8.43187 16.2585 8.40301 16.3321 8.38872C16.4057 8.37444 16.4814 8.37501 16.5548 8.39041C16.6282 8.40582 16.6978 8.43574 16.7594 8.47841C16.8211 8.52109 16.8736 8.57567 16.9138 8.63893C16.9541 8.70219 16.9813 8.77286 16.9938 8.84679C17.0064 8.92071 17.004 8.9964 16.9869 9.0694C16.9698 9.1424 16.9382 9.21125 16.8941 9.27188L11.8316 16.5844C11.785 16.6525 11.7239 16.7096 11.6527 16.7515C11.5816 16.7934 11.5021 16.8191 11.4198 16.8268C11.403 16.8268 11.3861 16.8268 11.3692 16.8268Z"
      fill="#F9FFFE"/>
  </g>
  <defs>
    <linearGradient id="paint0_linear_456_1301" x1="0.494141" y1="0.88916" x2="0.494141" y2="24.8892"
                    gradientUnits="userSpaceOnUse">
      <stop stop-color="#29CCB1"/>
      <stop offset="1" stop-color="#12B388"/>
    </linearGradient>
    <clipPath id="clip0_456_1301">
      <rect width="9" height="9" fill="white" transform="translate(7.99414 8.38916)"/>
    </clipPath>
  </defs>
</svg>
