<svg width="40" height="40" viewBox="0 0 40 40" fill="none" xmlns="http://www.w3.org/2000/svg">
  <g clip-path="url(#clip0_746_2775)">
    <path
      d="M20 5V7.5M20 5C11.7157 5 5 11.7157 5 20M20 5C28.2843 5 35 11.7157 35 20M35 20H32.5M35 20C35 28.2843 28.2843 35 20 35M20 35V32.5M20 35C11.7157 35 5 28.2843 5 20M5 20H7.5M12.5 17.1429L12.5456 17.0089C12.955 15.8057 14.0591 15 15.2984 15H15.5823C17.1017 15 18.3333 16.2668 18.3333 17.8296C18.3333 18.7434 17.9043 19.6009 17.1813 20.1321L12.5 23.5714V25H18.3333M25.625 25V15H25.2328L20 22.6227V23H27.5M38.75 20C38.75 30.3553 30.3553 38.75 20 38.75C9.64466 38.75 1.25 30.3553 1.25 20C1.25 9.64466 9.64466 1.25 20 1.25C30.3553 1.25 38.75 9.64466 38.75 20Z"
      stroke="#6699FF" stroke-width="1.66667" stroke-linecap="round" stroke-linejoin="round"/>
  </g>
  <defs>
    <clipPath id="clip0_746_2775">
      <rect width="40" height="40" fill="white"/>
    </clipPath>
  </defs>
</svg>
