<svg width="28" height="28" viewBox="0 0 28 28" fill="none" xmlns="http://www.w3.org/2000/svg">
  <path
    d="M13.8838 24.7917C12.1921 24.7917 10.6754 24.3396 9.37753 23.4646C8.0942 22.5896 7.1317 21.3354 6.50461 19.7313C6.14003 18.7979 5.92128 17.7771 5.8192 16.6104C5.70253 15.225 5.79003 13.8104 6.09628 12.425C6.57753 10.1938 7.55461 8.26876 8.98378 6.66459C10.3984 5.08959 12.0754 4.02501 13.9859 3.52918C14.8025 3.31043 15.6192 3.20834 16.3921 3.20834C17.3254 3.20834 18.2442 3.36876 19.1192 3.68959C20.4171 4.17084 21.3067 5.00209 21.7296 6.16876C21.9338 6.70834 21.9921 7.27709 21.9338 7.91876C21.8463 8.82293 21.5546 9.62501 21.0588 10.3104C20.49 11.0979 19.8046 11.5792 18.9734 11.7833C18.8275 11.8271 18.6671 11.8417 18.4921 11.8417C18.4192 11.8417 18.3609 11.8417 18.2879 11.8271C18.04 11.7979 17.8213 11.6958 17.6754 11.5063C17.5296 11.3167 17.4713 11.0688 17.5004 10.8208C17.5442 10.5292 17.6609 10.2813 17.7775 10.0771L17.8213 9.98959C18.0546 9.52293 18.2734 9.08543 18.39 8.61876C18.5796 7.83126 18.5796 7.23334 18.3754 6.67918C18.1567 6.09584 17.7484 5.73126 17.1359 5.58543C16.9025 5.52709 16.6692 5.49793 16.4359 5.49793C15.9109 5.49793 15.3567 5.62918 14.7734 5.89168C13.6213 6.41668 12.6442 7.29168 11.8129 8.56043C11.2442 9.43543 10.8067 10.4125 10.4859 11.55C10.2525 12.3667 10.1067 13.2271 10.0192 14.1167C9.97545 14.5396 9.94628 15.0354 9.94628 15.5167C9.96086 16.9313 10.165 18.0542 10.6025 19.0458C11.0838 20.1542 11.74 20.9271 12.6296 21.4229C13.2275 21.7583 13.8984 21.9333 14.6129 21.9333C14.7296 21.9333 14.8609 21.9333 14.9921 21.9188C16.5088 21.8021 17.8504 21.1167 19.0754 19.8333C19.7025 19.1771 20.2275 18.4188 20.6796 17.5146C20.7525 17.3833 20.8254 17.2375 20.9421 17.1208C21.0879 16.9604 21.2775 16.8729 21.4817 16.8729C21.7296 16.8729 21.9484 17.0042 22.0942 17.2375C22.2692 17.5292 22.2546 17.85 22.2254 18.0542C22.1379 18.6521 21.9192 19.2354 21.5546 19.9208C20.5046 21.8021 19.0609 23.1875 17.2671 24.0479C16.3484 24.4854 15.3567 24.7333 14.3359 24.7771C14.1754 24.7917 14.0296 24.7917 13.8838 24.7917Z"
    stroke="#6699FF" stroke-width="1.75" stroke-miterlimit="10" stroke-linejoin="round"/>
</svg>
