<svg width="16" height="17" viewBox="0 0 16 17" fill="none" xmlns="http://www.w3.org/2000/svg">
  <g clip-path="url(#clip0_4290_7097)">
    <path d="M15.667 0.833008V16.167H0.333008V0.833008H15.667Z" stroke="#0BB80B" stroke-width="0.666667"/>
    <path
      d="M2.6665 4.5C2.6665 4.14638 2.80698 3.80724 3.05703 3.55719C3.30708 3.30714 3.64622 3.16667 3.99984 3.16667H5.33317C5.68679 3.16667 6.02593 3.30714 6.27598 3.55719C6.52603 3.80724 6.6665 4.14638 6.6665 4.5V5.16667C6.6665 5.52029 6.52603 5.85943 6.27598 6.10948C6.02593 6.35952 5.68679 6.5 5.33317 6.5H3.99984C3.64622 6.5 3.30708 6.35952 3.05703 6.10948C2.80698 5.85943 2.6665 5.52029 2.6665 5.16667V4.5Z"
      stroke="#0BB80B" stroke-width="1.33333" stroke-linecap="round" stroke-linejoin="round"/>
    <path
      d="M2.6665 10.5C2.6665 10.1464 2.80698 9.80724 3.05703 9.55719C3.30708 9.30714 3.64622 9.16667 3.99984 9.16667H5.33317C5.68679 9.16667 6.02593 9.30714 6.27598 9.55719C6.52603 9.80724 6.6665 10.1464 6.6665 10.5V12.5C6.6665 12.8536 6.52603 13.1928 6.27598 13.4428C6.02593 13.6929 5.68679 13.8333 5.33317 13.8333H3.99984C3.64622 13.8333 3.30708 13.6929 3.05703 13.4428C2.80698 13.1928 2.6665 12.8536 2.6665 12.5V10.5Z"
      stroke="#0BB80B" stroke-width="1.33333" stroke-linecap="round" stroke-linejoin="round"/>
    <path
      d="M9.3335 4.5C9.3335 4.14638 9.47397 3.80724 9.72402 3.55719C9.97407 3.30714 10.3132 3.16667 10.6668 3.16667H12.0002C12.3538 3.16667 12.6929 3.30714 12.943 3.55719C13.193 3.80724 13.3335 4.14638 13.3335 4.5V12.5C13.3335 12.8536 13.193 13.1928 12.943 13.4428C12.6929 13.6929 12.3538 13.8333 12.0002 13.8333H10.6668C10.3132 13.8333 9.97407 13.6929 9.72402 13.4428C9.47397 13.1928 9.3335 12.8536 9.3335 12.5V4.5Z"
      stroke="#0BB80B" stroke-width="1.33333" stroke-linecap="round" stroke-linejoin="round"/>
  </g>
  <defs>
    <clipPath id="clip0_4290_7097">
      <rect width="16" height="16" fill="white" transform="translate(0 0.5)"/>
    </clipPath>
  </defs>
</svg>
