<svg width="28" height="28" viewBox="0 0 28 28" fill="none" xmlns="http://www.w3.org/2000/svg">
  <path
    d="M16.3337 3.5V8.16667C16.3337 8.47609 16.4567 8.77283 16.6754 8.99162C16.8942 9.21042 17.191 9.33333 17.5004 9.33333H22.1671"
    stroke="#6699FF" stroke-width="1.75" stroke-linecap="round" stroke-linejoin="round"/>
  <path
    d="M5.83374 14V5.83333C5.83374 5.21449 6.07957 4.621 6.51716 4.18342C6.95474 3.74583 7.54824 3.5 8.16707 3.5H16.3337L22.1671 9.33333V14"
    stroke="#6699FF" stroke-width="1.75" stroke-linecap="round" stroke-linejoin="round"/>
  <path
    d="M5.83374 21H7.58374C8.04787 21 8.49299 20.8156 8.82118 20.4874C9.14937 20.1592 9.33374 19.7141 9.33374 19.25C9.33374 18.7859 9.14937 18.3408 8.82118 18.0126C8.49299 17.6844 8.04787 17.5 7.58374 17.5H5.83374V24.5"
    stroke="#F5690F" stroke-width="1.75" stroke-linecap="round" stroke-linejoin="round"/>
  <path
    d="M12.25 23.625C12.25 24.108 12.642 24.5 13.125 24.5H14.5833C14.8928 24.5 15.1895 24.3771 15.4083 24.1583C15.6271 23.9395 15.75 23.6428 15.75 23.3333V22.1667C15.75 21.8572 15.6271 21.5605 15.4083 21.3417C15.1895 21.1229 14.8928 21 14.5833 21H13.4167C13.1072 21 12.8105 20.8771 12.5917 20.6583C12.3729 20.4395 12.25 20.1428 12.25 19.8333V18.6667C12.25 18.3572 12.3729 18.0605 12.5917 17.8417C12.8105 17.6229 13.1072 17.5 13.4167 17.5H14.875C15.1071 17.5 15.3296 17.5922 15.4937 17.7563C15.6578 17.9204 15.75 18.1429 15.75 18.375"
    stroke="#F5690F" stroke-width="1.75" stroke-linecap="round" stroke-linejoin="round"/>
  <path
    d="M19.25 17.5V24.5H20.4167C21.0355 24.5 21.629 24.2542 22.0666 23.8166C22.5042 23.379 22.75 22.7855 22.75 22.1667V19.8333C22.75 19.2145 22.5042 18.621 22.0666 18.1834C21.629 17.7458 21.0355 17.5 20.4167 17.5H19.25Z"
    stroke="#F5690F" stroke-width="1.75" stroke-linecap="round" stroke-linejoin="round"/>
</svg>
