<svg width="40" height="40" viewBox="0 0 40 40" fill="none" xmlns="http://www.w3.org/2000/svg">
  <path d="M20 37.5C29.665 37.5 37.5 29.665 37.5 20C37.5 10.335 29.665 2.5 20 2.5" stroke="#6699FF"
        stroke-width="1.66667" stroke-linecap="round" stroke-linejoin="round"/>
  <path
    d="M20.0004 29.5834L16.8513 21.3959C16.2629 19.8661 16.859 18.1348 18.2645 17.2915C19.3329 16.6505 20.6678 16.6505 21.7362 17.2915C23.1417 18.1348 23.7378 19.8661 23.1494 21.3959L20.0004 29.5834Z"
    stroke="#6699FF" stroke-width="1.66667" stroke-linecap="round" stroke-linejoin="round"/>
  <path
    d="M2.5 20C2.5 20.3452 2.77983 20.625 3.125 20.625C3.47017 20.625 3.75 20.3452 3.75 20C3.75 19.6548 3.47017 19.375 3.125 19.375C2.77983 19.375 2.5 19.6548 2.5 20Z"
    fill="#6699FF" stroke="#6699FF" stroke-width="1.66667" stroke-linecap="round" stroke-linejoin="round"/>
  <path
    d="M4.84458 28.75C5.01717 29.0489 5.39942 29.1513 5.69835 28.9787C5.99728 28.8061 6.09971 28.4239 5.92712 28.125C5.75452 27.826 5.37228 27.7236 5.07335 27.8962C4.77442 28.0688 4.67199 28.451 4.84458 28.75Z"
    fill="#6699FF" stroke="#6699FF" stroke-width="1.66667" stroke-linecap="round" stroke-linejoin="round"/>
  <path
    d="M11.8751 5.92711C12.174 5.75452 12.2764 5.37228 12.1038 5.07335C11.9313 4.77442 11.549 4.67199 11.2501 4.84458C10.9512 5.01717 10.8488 5.39942 11.0213 5.69835C11.1939 5.99728 11.5762 6.0997 11.8751 5.92711Z"
    fill="#6699FF" stroke="#6699FF" stroke-width="1.66667" stroke-linecap="round" stroke-linejoin="round"/>
  <path
    d="M11.2501 35.1555C11.549 35.3281 11.9313 35.2257 12.1038 34.9267C12.2764 34.6277 12.174 34.2455 11.8751 34.0729C11.5762 33.9003 11.1939 34.0027 11.0213 34.3017C10.8488 34.6007 10.9512 34.9828 11.2501 35.1555Z"
    fill="#6699FF" stroke="#6699FF" stroke-width="1.66667" stroke-linecap="round" stroke-linejoin="round"/>
  <path
    d="M5.92711 11.875C6.0997 11.576 5.99727 11.1938 5.69835 11.0212C5.39942 10.8486 5.01717 10.951 4.84458 11.25C4.67199 11.5489 4.77442 11.9311 5.07335 12.1037C5.37228 12.2763 5.75452 12.1739 5.92711 11.875Z"
    fill="#6699FF" stroke="#6699FF" stroke-width="1.66667" stroke-linecap="round" stroke-linejoin="round"/>
</svg>
