<svg width="28" height="28" viewBox="0 0 28 28" fill="none" xmlns="http://www.w3.org/2000/svg">
  <path d="M16.9165 6.4167L21.5832 11.0834" stroke="#6699FF" stroke-width="1.75" stroke-linecap="round"
        stroke-linejoin="round"/>
  <path d="M14 9.33333L8.16667 3.5L3.5 8.16667L9.33333 14" stroke="#F5690F" stroke-width="1.75" stroke-linecap="round"
        stroke-linejoin="round"/>
  <path d="M8.1665 9.3333L6.4165 11.0833" stroke="#F5690F" stroke-width="1.75" stroke-linecap="round"
        stroke-linejoin="round"/>
  <path d="M18.6667 14L24.5 19.8333L19.8333 24.5L14 18.6667" stroke="#F5690F" stroke-width="1.75" stroke-linecap="round"
        stroke-linejoin="round"/>
  <path d="M18.6665 19.8333L16.9165 21.5833" stroke="#F5690F" stroke-width="1.75" stroke-linecap="round"
        stroke-linejoin="round"/>
  <path
    d="M3.5 24.5001H8.16667L23.3333 9.33344C23.9522 8.7146 24.2998 7.87527 24.2998 7.0001C24.2998 6.12493 23.9522 5.28561 23.3333 4.66677C22.7145 4.04793 21.8752 3.70027 21 3.70027C20.1248 3.70027 19.2855 4.04793 18.6667 4.66677L3.5 19.8334V24.5001Z"
    stroke="#6699FF" stroke-width="1.75" stroke-linecap="round" stroke-linejoin="round"/>
</svg>
