<svg width="28" height="28" viewBox="0 0 28 28" fill="none" xmlns="http://www.w3.org/2000/svg">
  <path
    d="M5.83374 8.16667C5.83374 9.40434 6.32541 10.5913 7.20058 11.4665C8.07574 12.3417 9.26273 12.8333 10.5004 12.8333C11.7381 12.8333 12.9251 12.3417 13.8002 11.4665C14.6754 10.5913 15.1671 9.40434 15.1671 8.16667C15.1671 6.92899 14.6754 5.742 13.8002 4.86683C12.9251 3.99167 11.7381 3.5 10.5004 3.5C9.26273 3.5 8.07574 3.99167 7.20058 4.86683C6.32541 5.742 5.83374 6.92899 5.83374 8.16667Z"
    stroke="#6699FF" stroke-width="1.75" stroke-linecap="round" stroke-linejoin="round"/>
  <path
    d="M3.5 24.5V22.1667C3.5 20.929 3.99167 19.742 4.86683 18.8668C5.742 17.9917 6.92899 17.5 8.16667 17.5H12.8333C13.9533 17.5 14.98 17.8943 15.785 18.5512"
    stroke="#6699FF" stroke-width="1.75" stroke-linecap="round" stroke-linejoin="round"/>
  <path
    d="M18.6665 3.65167C19.6703 3.90869 20.56 4.49249 21.1954 5.31103C21.8308 6.12958 22.1757 7.13631 22.1757 8.17251C22.1757 9.2087 21.8308 10.2154 21.1954 11.034C20.56 11.8525 19.6703 12.4363 18.6665 12.6933"
    stroke="#6699FF" stroke-width="1.75" stroke-linecap="round" stroke-linejoin="round"/>
  <path d="M18.6665 22.1667H25.6665M22.1665 18.6667V25.6667" stroke="#F5690F" stroke-width="1.75" stroke-linecap="round"
        stroke-linejoin="round"/>
</svg>
