<svg width="58" height="32" viewBox="0 0 58 32" fill="none" xmlns="http://www.w3.org/2000/svg">
  <path fill-rule="evenodd" clip-rule="evenodd"
        d="M46.7753 9.64371H43.1412C43.1412 6.32737 40.4568 3.63923 37.1451 3.63923V0C42.4636 0 46.7753 4.31771 46.7753 9.64371ZM21.4965 15.6485V19.2877C16.1779 19.2877 11.8662 14.97 11.8662 9.64375H15.5004C15.5004 12.9601 18.185 15.6485 21.4965 15.6485ZM37.1223 15.6484C33.8106 15.6484 31.126 12.9601 31.126 9.64371H31.127C31.127 4.31771 26.8153 0 21.4965 0V3.63923C24.8082 3.63923 27.4928 6.32737 27.4928 9.64371H27.4921C27.4921 14.97 31.8037 19.2877 37.1223 19.2877V15.6484Z"
        fill="#828899"/>
  <path fill-rule="evenodd" clip-rule="evenodd"
        d="M56.6744 22.4386H56.4546V23.1549H56.3688V22.4386H56.1467V22.3561H56.7049L56.6744 22.4386ZM6.04567 28.7529L5.02532 27.853C4.6789 28.3881 4.07464 28.7431 3.38671 28.7431C2.31115 28.7431 1.43922 27.8768 1.43922 26.8081C1.43922 25.7396 2.31115 24.8733 3.38671 24.8733C4.09083 24.8733 4.7076 25.2447 5.0496 25.8011L6.05794 24.8804C5.4576 24.0607 4.48508 23.5273 3.38671 23.5273C1.56287 23.5273 0.0844727 24.9963 0.0844727 26.8081C0.0844727 28.6201 1.56287 30.0888 3.38671 30.0888C4.47748 30.0888 5.4446 29.563 6.04567 28.7529ZM57.6845 30.0938H56.3746L56.3503 29.5385C56.053 29.9446 55.6111 30.1766 55.0164 30.1766C53.8592 30.1766 52.9269 29.2566 52.9269 27.856C52.9269 26.4473 53.8592 25.4939 55.0164 25.4939C55.5868 25.4939 56.0208 25.7179 56.3182 26.0991V23.6293H57.6845V30.0938ZM14.0167 26.787L14.105 25.4939C13.4541 25.4939 12.9237 25.7262 12.5699 26.1239L12.5459 25.5769H11.2279V30.0938H12.5942V27.7733C12.5942 27.1848 13.1808 26.787 14.0167 26.787ZM17.3702 26.787L17.4587 25.4939C16.8076 25.4939 16.2772 25.7262 15.9237 26.1239L15.8996 25.5769H14.5817V30.0938H15.9477V27.7733C15.9477 27.1848 16.5345 26.787 17.3702 26.787ZM55.3298 26.6957C55.9245 26.6957 56.3182 27.16 56.3182 27.8312C56.3182 28.5191 55.9245 28.9667 55.3298 28.9667C54.7351 28.9667 54.3413 28.5108 54.3413 27.8395C54.3413 27.16 54.7351 26.6957 55.3298 26.6957ZM21.9185 28.3284H18.9129C18.9934 28.7926 19.2343 29.0745 19.7568 29.0745C20.1263 29.0745 20.4318 28.9169 20.6408 28.6601L21.7016 29.1904C21.3238 29.7788 20.6246 30.1766 19.7728 30.1766C18.3906 30.1766 17.4664 29.265 17.4664 27.881C17.4664 26.4554 18.3584 25.4939 19.7085 25.4939C21.0505 25.4939 21.9507 26.3974 21.9507 27.7649C21.9507 27.9554 21.9347 28.171 21.9185 28.3284ZM20.5201 27.3836H18.9129C19.0093 26.8781 19.2585 26.5963 19.7085 26.5963C20.1665 26.5963 20.4317 26.8781 20.5201 27.3836ZM38.8676 26.6957C38.2489 26.6957 37.847 27.1516 37.847 27.8312C37.847 28.5108 38.2408 28.9667 38.8676 28.9667C39.2454 28.9667 39.5347 28.8589 39.7518 28.6019L40.5232 29.5385C40.0973 29.9694 39.4866 30.1766 38.8114 30.1766C37.3809 30.1766 36.4246 29.2402 36.4246 27.8312C36.4246 26.4306 37.389 25.4939 38.8436 25.4939C39.4302 25.4939 39.9687 25.7011 40.3787 26.0328L39.6071 26.9859C39.4221 26.8118 39.1893 26.6957 38.8676 26.6957ZM28.6628 27.8312C28.6628 27.1516 29.0647 26.6957 29.6834 26.6957C30.0051 26.6957 30.2381 26.8118 30.4229 26.9859L31.1945 26.0328C30.7845 25.7011 30.246 25.4939 29.6594 25.4939C28.2048 25.4939 27.2404 26.4306 27.2404 27.8312C27.2404 29.2402 28.1967 30.1766 29.6272 30.1766C30.3024 30.1766 30.9131 29.9694 31.339 29.5385L30.5676 28.6019C30.3505 28.8589 30.0612 28.9667 29.6834 28.9667C29.0566 28.9667 28.6628 28.5108 28.6628 27.8312ZM41.0666 30.0938V23.6293H42.4326V30.0938H41.0666ZM33.4128 32C34.9238 32 35.9204 31.055 35.9204 29.6212V25.5769H34.5541V28.1958C34.5541 28.6601 34.2648 28.9667 33.8227 28.9667C33.3728 28.9667 33.0833 28.6601 33.0833 28.1958V25.5769H31.7173V28.403C31.7173 29.4722 32.3681 30.1766 33.3407 30.1766C33.7906 30.1766 34.2327 30.0109 34.5541 29.6546C34.5379 30.3423 34.072 30.7982 33.3806 30.7982C32.8745 30.7982 32.4165 30.6821 31.9744 30.3423L31.677 31.4447C32.111 31.8092 32.7217 32 33.4128 32ZM42.9284 27.8312C42.9284 26.4306 43.8928 25.4939 45.3396 25.4939C46.7621 25.4939 47.7262 26.4306 47.7262 27.8312C47.7262 29.2402 46.7621 30.1766 45.3396 30.1766C43.8928 30.1766 42.9284 29.2402 42.9284 27.8312ZM45.3315 26.6957C45.9181 26.6957 46.3119 27.1516 46.3119 27.8312C46.3119 28.5108 45.9181 28.9667 45.3315 28.9667C44.7368 28.9667 44.343 28.5108 44.343 27.8312C44.343 27.1516 44.7368 26.6957 45.3315 26.6957ZM52.4175 25.5769V28.4445C52.4175 29.4806 51.5738 30.1766 50.312 30.1766C49.0503 30.1766 48.2063 29.3892 48.2063 28.1958V25.5769H49.5726V28.1958C49.5726 28.6601 49.87 28.9667 50.312 28.9667C50.7539 28.9667 51.0513 28.6601 51.0513 28.1958V25.5769H52.4175ZM10.6794 28.4445V25.5769H9.31307V28.1958C9.31307 28.6601 9.01572 28.9667 8.57362 28.9667C8.13177 28.9667 7.83418 28.6601 7.83418 28.1958V25.5769H6.46814V28.1958C6.46814 29.3892 7.31185 30.1766 8.57362 30.1766C9.83539 30.1766 10.6794 29.4806 10.6794 28.4445ZM26.7619 27.2594V30.0938H25.3959V27.4747C25.3959 27.0024 25.0662 26.6957 24.5681 26.6957C24.0618 26.6957 23.7323 27.0024 23.7323 27.4747V30.0938H22.366V25.5769H23.6839L23.7001 26.0824C24.0456 25.6847 24.5358 25.4939 25.0502 25.4939C26.0789 25.4939 26.7619 26.1986 26.7619 27.2594ZM57.4322 22.5778V23.1549H57.5181V22.3561H57.4288L57.1962 22.7367C57.1859 22.7529 57.1783 22.766 57.1732 22.7766C57.168 22.7873 57.1636 22.7971 57.1597 22.807H57.1587C57.1545 22.7971 57.1496 22.7873 57.1437 22.7766C57.1378 22.766 57.13 22.7529 57.1197 22.7367L56.8753 22.3561H56.7873V23.1549H56.8729V22.5778V22.5585C56.8729 22.552 56.8726 22.5459 56.8724 22.5398L56.8721 22.5357C56.8717 22.5308 56.8712 22.5254 56.8707 22.5198L56.8703 22.5158C56.8696 22.5093 56.8688 22.5018 56.8682 22.493H56.8707C56.8778 22.5117 56.8844 22.5269 56.8913 22.5391C56.8977 22.5512 56.9043 22.5621 56.9104 22.5717L57.1302 22.9173H57.1867L57.3947 22.5717C57.4011 22.5613 57.4072 22.5502 57.4136 22.5386C57.4197 22.5269 57.4266 22.5117 57.4335 22.493H57.4359L57.4354 22.5007C57.4349 22.508 57.4344 22.5143 57.4342 22.5198L57.4341 22.5213C57.4337 22.5278 57.4332 22.5342 57.433 22.5398C57.4325 22.5459 57.4322 22.552 57.4322 22.5585V22.5778Z"
        fill="#828899"/>
</svg>
