<svg width="55" height="28" viewBox="0 0 55 28" fill="none" xmlns="http://www.w3.org/2000/svg">
  <mask id="mask0_1975_2934" style="mask-type:luminance" maskUnits="userSpaceOnUse" x="0" y="12" width="11" height="16">
    <path fill-rule="evenodd" clip-rule="evenodd" d="M0.915039 12.6747H10.8979V27.6356H0.915039V12.6747Z" fill="white"/>
  </mask>
  <g mask="url(#mask0_1975_2934)">
    <path fill-rule="evenodd" clip-rule="evenodd"
          d="M3.69384 15.2618H10.2032C10.3277 14.3594 10.5624 13.4918 10.8979 12.6747H0.915039V27.6356H3.69384V21.5105H9.72156V18.9221H3.69384"
          fill="#828899"/>
  </g>
  <mask id="mask1_1975_2934" style="mask-type:luminance" maskUnits="userSpaceOnUse" x="11" y="0" width="44" height="24">
    <path fill-rule="evenodd" clip-rule="evenodd" d="M11.4614 0H54.415V23.2281H11.4614V0Z" fill="white"/>
  </mask>
  <g mask="url(#mask1_1975_2934)">
    <path fill-rule="evenodd" clip-rule="evenodd"
          d="M14.199 15.2618C14.8771 12.1725 17.6353 9.85735 20.9368 9.85735C21.8095 9.85735 22.6401 10.0256 23.4078 10.3193C23.9388 6.01536 27.616 2.68063 32.0773 2.68063C36.5449 2.68063 40.2271 6.02357 40.7499 10.3357C41.6978 9.93326 42.7414 9.71048 43.8354 9.71048C48.1928 9.71048 51.7269 13.2331 51.7269 17.576C51.7269 19.8923 50.9077 21.6151 49.6501 23.228H52.7047C53.8624 21.4888 54.415 19.5904 54.415 17.576C54.415 11.7608 49.6696 7.02971 43.8354 7.02971C43.4381 7.02971 43.0461 7.05444 42.658 7.09749C40.9548 2.93832 36.8547 -6.10352e-05 32.0773 -6.10352e-05C27.2651 -6.10352e-05 23.1391 2.98351 21.4585 7.19198C21.2857 7.18282 21.1128 7.1776 20.9368 7.1776C16.1523 7.1776 12.1756 10.6889 11.4614 15.2618"
          fill="#828899"/>
  </g>
  <path fill-rule="evenodd" clip-rule="evenodd" d="M11.4443 16.4143H14.1417V27.6351H11.4443" fill="#828899"/>
  <path fill-rule="evenodd" clip-rule="evenodd"
        d="M15.2974 16.4143H18.2181L20.936 23.8558H20.9968L23.5522 16.4143H26.5129L21.9497 27.6351H19.84"
        fill="#828899"/>
  <path fill-rule="evenodd" clip-rule="evenodd"
        d="M43.8528 14.9388C42.2103 14.9388 41.3376 16.3536 41.3376 17.526C41.3376 19.0425 42.3728 20.1555 43.8528 20.1555C45.4757 20.1555 46.3464 18.7386 46.3464 17.6277C46.3464 16.1514 45.273 14.9388 43.8528 14.9388ZM40.4854 27.6359L43.8117 22.5805C43.5893 22.6411 43.3454 22.6411 43.082 22.6411C40.9526 22.6217 38.6401 20.7611 38.6401 17.7693C38.6401 14.5948 41.0936 12.3905 43.8322 12.3905C46.5296 12.3905 49.0448 14.4727 49.0448 17.7489C49.0448 18.2951 48.943 18.9408 48.7001 19.6092C48.4561 20.2149 48.1731 20.7818 47.8274 21.2869L43.6501 27.6359"
        fill="#828899"/>
  <path fill-rule="evenodd" clip-rule="evenodd"
        d="M32.1484 18.4363C33.4872 18.4363 34.887 19.2649 35.1916 21.0647H28.9642C29.4726 18.9815 31.1552 18.4363 32.1484 18.4363ZM34.5648 24.3809C34.0399 25.1283 33.2166 25.5329 32.1484 25.5329C30.2218 25.5329 29.1679 23.9558 29.0455 23.2279H37.787C37.8684 22.8635 37.9486 22.3995 37.9486 21.8737C37.9486 19.0431 35.6979 15.9692 32.1278 15.9692C28.6606 15.9692 26.207 18.8809 26.207 22.0554C26.207 25.3307 28.8015 28 32.1484 28C34.6604 28 36.7292 26.2915 37.4794 24.3809"
        fill="#828899"/>
  <path fill-rule="evenodd" clip-rule="evenodd"
        d="M47.9942 26.3869H47.5289V27.6354H47.3623V26.3869H46.896V26.2329H47.9942" fill="#828899"/>
  <path fill-rule="evenodd" clip-rule="evenodd"
        d="M48.1904 26.2325H48.4395L48.9159 27.3322H48.9202L49.4007 26.2325H49.6435V27.636H49.4768V26.4585H49.4727L48.9674 27.636H48.8666L48.3624 26.4585H48.3571V27.636H48.1904"
        fill="#828899"/>
</svg>
