<svg width="64" height="16" viewBox="0 0 64 16" fill="none" xmlns="http://www.w3.org/2000/svg">
  <path fill-rule="evenodd" clip-rule="evenodd"
        d="M57.5465 5.65282C57.0703 5.57298 56.5962 5.52288 56.1576 5.47654C55.0338 5.35778 54.1434 5.26369 54.0486 4.75695C53.9074 4.1123 54.7977 3.96276 55.4596 3.99533C56.8433 3.93552 58.8276 4.54295 59.9816 4.98491C59.9883 4.97162 62.2316 1.47586 62.2316 1.47586C60.3079 0.456375 57.376 -0.167678 54.5926 0.0396752C50.9649 0.3095 48.7941 2.54585 48.9226 5.15371C48.936 8.50193 52.2327 9.4822 53.8415 9.75602C54.5718 9.89598 55.251 9.97336 55.8381 10.0403C57.1413 10.1887 57.9913 10.2856 57.9427 10.9004C57.936 11.5059 56.8014 11.7073 55.5948 11.6308C54.2277 11.6308 52.3473 11.2314 50.6353 10.1787L48.2887 13.8207C50.9909 15.7287 54.2271 16.1481 56.7821 15.9587C60.188 15.6483 62.7876 14.0506 63.028 11.2746C63.5361 7.54691 60.527 6.08148 57.5465 5.65282ZM13.4178 0.175896C12.0634 0.175896 10.7097 0.195834 10.749 0.235709V5.34068C10.7358 5.32767 9.53451 5.32117 8.33514 5.32117C7.13449 5.32117 5.93317 5.32769 5.92134 5.34072V0.235709C5.9613 0.195834 4.60756 0.175896 3.25315 0.175896C1.90075 0.175896 0.546211 0.195834 0.585299 0.235709V15.7779C0.585299 15.8177 1.91806 15.8377 3.25315 15.8377C4.58958 15.8377 5.92667 15.8177 5.92134 15.7779V10.4419C5.92134 10.4551 7.12725 10.4618 8.33514 10.4618C9.54105 10.4618 10.747 10.4618 10.749 10.442V15.7779C10.7423 15.8177 12.0801 15.8377 13.4178 15.8377C14.7536 15.8377 16.0907 15.8177 16.0853 15.7779V0.235709C16.1253 0.195834 14.7709 0.175896 13.4178 0.175896ZM26.1375 5.47066C26.1395 5.4494 24.5993 9.84235 24.6126 9.82241C24.5967 9.84235 27.5858 9.84235 27.5725 9.82241C27.5878 9.84368 26.1375 5.45073 26.1375 5.47066ZM28.8523 0.226441C28.8789 0.148019 23.404 0.148019 23.4307 0.226441C23.404 0.148019 17.1101 15.8503 17.1993 15.7713C17.1101 15.8503 22.4745 15.8503 22.5257 15.7713C22.5391 15.7048 23.2675 13.6339 23.2962 13.5788C23.2695 13.6386 28.8363 13.6386 28.8097 13.5788C28.8363 13.6319 29.5195 15.7075 29.5321 15.7713C29.5854 15.8503 35.0829 15.8503 34.993 15.7713C35.0829 15.8503 28.8796 0.148019 28.8523 0.226441ZM43.2759 10.1275C43.3019 10.1487 49.6418 0.147278 49.5526 0.226364C49.6418 0.147278 43.9465 0.147278 43.9132 0.226364C43.9458 0.147278 40.6431 5.35237 40.6431 5.37895C40.6431 5.35303 37.3396 0.147278 37.3729 0.226364C37.3403 0.147278 31.6477 0.147278 31.7362 0.226364C31.6477 0.147278 37.9849 10.1474 38.0115 10.1275V15.7705C37.9835 15.8496 43.3026 15.8496 43.2759 15.7705V10.1275Z"
        fill="#828899"/>
</svg>
