<svg width="62" height="24" viewBox="0 0 62 24" fill="none" xmlns="http://www.w3.org/2000/svg">
  <path fill-rule="evenodd" clip-rule="evenodd"
        d="M4.58897 12.3446C5.45381 11.4155 5.73179 10.0529 5.29937 8.84506C2.90562 2.17122 5.88623 0.467927 6.27232 0.28211C7.58502 -0.399209 8.04833 -0.135972 15.7392 4.38551C17.6876 5.53393 22.4738 5.01189 28.2672 4.37999C36.8469 3.44419 47.6357 2.26745 54.6879 5.91848C58.8114 8.05535 60.2785 9.78962 60.8499 10.8735C61.1279 11.4155 61.1588 12.0504 60.9426 12.6233C57.9311 20.2881 32.0477 28.2317 18.9978 21.403C17.0211 20.381 14.9979 19.6688 12.8049 19.452C10.7419 19.2385 8.85336 20.0014 7.10946 20.7059C5.18507 21.4832 3.43681 22.1895 1.82457 21.434C1.0215 21.0624 0.403754 20.3346 0.172101 19.4829C-0.229432 18.0119 0.666295 16.5099 4.58897 12.3446ZM50.5953 8.30305C50.2092 8.28757 50.1475 8.55081 50.0085 9.63473C49.9903 9.74413 49.9775 9.8589 49.9637 9.98219L49.9636 9.98315L49.9634 9.98423C49.9539 10.0697 49.9438 10.1594 49.9313 10.2541C49.924 10.2831 49.9202 10.3122 49.9165 10.3396L49.9165 10.3397C49.9124 10.3708 49.9086 10.3998 49.9004 10.4244C49.8849 10.5173 49.8077 10.5793 49.715 10.5638C49.5297 10.5483 49.3907 10.5483 49.1282 10.5793C49.0819 10.5793 49.0355 10.5638 48.9892 10.5328C48.9583 10.5019 48.9274 10.4399 48.9274 10.3935C48.9892 8.72114 48.9738 8.70565 48.7575 8.58178C48.5722 8.50435 48.3097 8.58178 48.2016 8.73662C48.0008 9.03083 47.9699 9.30955 47.8927 10.347L47.8618 10.6722C47.8618 10.7341 47.8155 10.7806 47.7692 10.8116C47.7228 10.8348 47.6804 10.858 47.6379 10.8812C47.5954 10.9045 47.5529 10.9277 47.5066 10.9509C47.3676 11.0283 47.3058 11.1367 47.3058 11.3071C47.3058 11.4929 47.3831 11.7251 47.5221 11.8335C47.5529 11.849 47.5684 11.849 47.6147 11.849L47.6182 11.8488C47.6198 11.8486 47.6214 11.8482 47.6229 11.8478C47.6253 11.8472 47.6278 11.8464 47.6302 11.8456C47.6405 11.8421 47.6508 11.8387 47.661 11.849C47.6765 11.849 47.6919 11.849 47.7074 11.8645C47.7383 11.8955 47.7383 11.9419 47.7383 11.9884C47.6933 12.5835 47.6483 13.0526 47.6125 13.4263L47.6124 13.4274C47.5868 13.6949 47.5658 13.9134 47.5529 14.0943C47.4757 14.8375 47.4603 14.9924 47.5066 15.333C47.5375 15.5653 47.7383 15.7666 47.939 15.7821C48.1707 15.8131 48.3715 15.6737 48.4487 15.4259C48.5464 15.132 48.6315 13.7879 48.6926 12.8233L48.6928 12.8203L48.6936 12.8075L48.7112 12.5303C48.7267 12.2516 48.7421 12.0348 48.7575 11.911C48.7575 11.8335 48.8193 11.7716 48.8965 11.7561C49.1127 11.6942 49.3598 11.6322 49.6069 11.6787C49.6842 11.6942 49.7459 11.7716 49.7459 11.849C49.7568 12.3266 49.7372 12.7585 49.7192 13.1555V13.1556V13.1557V13.1558V13.1558V13.1559V13.156V13.1561V13.1561V13.1562V13.1563C49.7116 13.3253 49.7042 13.488 49.6996 13.6452L49.6937 13.7655C49.6652 14.3429 49.6428 14.7974 49.715 15.1163C49.7459 15.2711 49.854 15.333 49.9313 15.3485C50.1011 15.395 50.3173 15.3176 50.4563 15.1782C50.5953 15.0233 50.6571 14.8375 50.6571 14.6053L50.7189 13.0723V13.0722L50.7189 13.0719C50.776 11.6681 50.7979 11.1301 50.8353 10.5933C50.8586 10.2599 50.8878 9.92683 50.9351 9.38697L50.9814 8.87598C50.9969 8.6592 50.966 8.51984 50.8888 8.44242C50.8579 8.34951 50.7498 8.31854 50.5953 8.30305ZM18.4264 11.1832C18.5808 11.0748 18.658 10.9199 18.658 10.7341C18.6426 9.91344 18.3183 9.29406 17.7005 8.89146C16.8202 8.33402 15.6465 8.41142 15.1369 8.64369C14.55 8.90693 14.1639 9.4334 14.0558 10.0838C13.9477 10.796 14.2103 11.5083 14.7662 12.0038L14.8589 12.0813L14.8684 12.0898C15.7266 12.858 16.108 13.1994 15.6002 14.0788C15.3994 14.4349 15.0442 14.6362 14.6118 14.6362C14.0867 14.6362 13.5307 14.3265 13.3145 13.9394C13.2064 13.7226 13.2064 13.5059 13.33 13.3046C13.3609 13.2581 13.3917 13.2271 13.4226 13.1961C13.4535 13.1652 13.4844 13.1187 13.4999 13.0878C13.5925 12.9019 13.5771 12.5923 13.4535 12.4529C13.3763 12.3755 13.2836 12.329 13.1755 12.3135C13.0829 12.3135 12.9593 12.329 12.8512 12.391C12.5269 12.5458 12.1872 12.9949 12.1408 13.3665C12.0636 13.9394 12.2489 14.4504 12.7277 14.9149C13.052 15.2246 13.4535 15.4569 13.9168 15.5963C14.4265 15.7356 14.8434 15.7511 15.2604 15.6272C16.0789 15.3795 16.604 14.8375 16.882 13.9859C17.16 13.1033 16.9747 12.4219 16.326 11.88C16.3034 11.8573 16.2808 11.8429 16.2522 11.8247L16.252 11.8246L16.237 11.815L16.2179 11.8025L16.2135 11.7991C15.951 11.5979 15.5676 11.3039 15.2604 10.7496C15.106 10.4709 15.106 10.2076 15.2604 9.97538C15.5075 9.63472 16.0481 9.46439 16.5731 9.57278C17.0982 9.68117 17.4843 10.0373 17.5924 10.5638L17.6079 10.6567L17.6162 10.6905C17.6446 10.8054 17.6752 10.9297 17.7314 11.0283C17.8086 11.1677 17.9167 11.2606 18.0403 11.2916C18.1329 11.307 18.2719 11.2761 18.4264 11.1832ZM23.9397 9.77407C24.0478 9.63471 24.2023 9.55729 24.3567 9.55729C24.5266 9.55729 24.6656 9.63471 24.7582 9.78956C24.8972 9.91343 24.9127 10.1302 24.82 10.4554C24.7737 10.6567 24.5883 11.2761 24.0478 12.5923C23.1058 14.9149 22.349 16.1692 21.7313 16.4634C21.6695 16.4944 21.5614 16.5408 21.4224 16.5408C21.3143 16.5408 21.2062 16.5253 21.0981 16.4789C20.5112 16.324 20.4031 15.4414 20.3877 14.7911C20.3877 14.7601 20.3722 14.7291 20.3414 14.7291H20.3259C20.295 14.7291 20.2796 14.7446 20.2641 14.7601L20.2024 14.884C19.8472 15.5653 19.4765 16.2621 18.936 16.2466C18.7507 16.2466 18.5808 16.1692 18.4572 16.0298C17.9322 15.4569 17.8704 13.6452 17.9322 12.6542C17.9476 12.5303 17.9631 12.4064 18.0094 12.2981C18.0866 12.0813 18.3183 11.9264 18.5036 11.9729C18.7043 12.0193 18.8588 12.1587 18.8897 12.36C18.9051 12.4684 18.9051 12.4839 18.9051 12.5613C18.9051 12.7161 18.9051 13.0568 19.0595 14.6517C19.0595 14.6672 19.075 14.6982 19.1059 14.6982C19.1213 14.6982 19.1522 14.6827 19.1677 14.6672C19.2294 14.5743 19.3066 14.4194 19.3684 14.2801C19.6843 13.6328 19.817 13.4142 19.9077 13.2649L19.9077 13.2648L19.9077 13.2648L19.9077 13.2648L19.9398 13.2116C20.0943 12.9794 20.2796 12.8555 20.4958 12.809C20.7892 12.7471 21.0518 12.871 21.1753 13.1187C21.3761 13.5523 21.3761 14.3265 21.3761 14.8375C21.3761 15.0233 21.3761 15.1782 21.3915 15.2711L21.4379 15.3175C21.4533 15.3175 21.4842 15.3175 21.4996 15.302C21.9166 14.9149 22.7506 12.8865 23.1984 11.6477L23.277 11.4254C23.4247 11.0077 23.5818 10.5634 23.7389 10.1302C23.7853 10.0063 23.8625 9.88247 23.9397 9.77407ZM34.7193 10.1767C34.8274 10.2077 34.951 10.2541 35.0436 10.3161C35.1981 10.4244 35.2907 10.6722 35.2135 10.8425C35.0605 11.2413 34.847 11.2299 33.7172 11.1694L33.6846 11.1677C33.4066 11.1522 33.0514 11.1367 32.6344 11.1212C32.619 11.1212 32.6036 11.1367 32.6036 11.1522C32.4491 11.9574 31.9549 14.6827 31.9086 16.0608C31.9086 16.2931 31.7387 16.4634 31.4453 16.5099C31.26 16.5408 31.0283 16.355 30.9665 16.1382C30.8364 15.6455 31.0581 14.271 31.2643 12.9924L31.3063 12.7316C31.4144 12.0968 31.5071 11.4929 31.5534 11.0903C31.5534 11.0748 31.5534 11.0593 31.538 11.0593C31.4607 11.0283 31.3372 11.0129 31.1673 10.9974L31.1256 10.9924C30.7392 10.9463 30.1724 10.8786 29.9936 10.5948C29.9318 10.4864 29.9164 10.347 29.9627 10.1922C30.009 10.0064 30.1635 9.95991 30.3642 9.92894C30.3797 9.92894 30.704 9.94442 31.1673 9.97539C32.4182 10.0528 34.673 10.1767 34.7193 10.1767ZM29.7002 12.3291C29.5303 12.2207 29.3759 12.2671 29.2523 12.3136C28.9126 12.4529 28.65 12.6852 28.4801 13.0259C28.4493 13.0878 28.4647 13.2117 28.511 13.2581C28.5574 13.3201 28.6655 13.3356 28.7272 13.3201C28.8508 13.2891 28.9743 13.2427 29.0824 13.1962C29.1283 13.1847 29.1656 13.1647 29.207 13.1425L29.2232 13.1339L29.2414 13.1243L29.2523 13.1188C29.3295 13.0878 29.3913 13.0568 29.4531 13.0259C29.6693 12.933 29.8546 12.9949 29.9936 13.2117C30.1017 13.3975 30.0399 13.6453 29.87 13.7846L29.87 13.7846C29.7002 13.9085 29.5303 14.0324 29.3604 14.1408L29.206 14.2491C28.9589 14.4195 28.8045 14.6517 28.6655 14.884L28.6191 14.9614C28.5574 15.0388 28.5419 15.1472 28.5419 15.2092C28.5419 15.2711 28.5574 15.3795 28.6191 15.426C28.6809 15.4724 28.789 15.4879 28.8508 15.4569C28.8959 15.4388 28.9304 15.4155 28.9637 15.393C28.9874 15.377 29.0104 15.3614 29.0361 15.3485C29.0516 15.3408 29.067 15.3292 29.0824 15.3176C29.0979 15.306 29.1133 15.2943 29.1288 15.2866L29.1906 15.2556C29.2678 15.2092 29.3604 15.1627 29.4376 15.1318C29.5458 15.0853 29.6384 15.0853 29.7156 15.1318C29.7929 15.1627 29.8392 15.2556 29.8701 15.364C29.9318 15.5963 29.8546 15.8131 29.6539 15.9989C29.2832 16.355 28.8199 16.4944 28.2794 16.386H28.2485C27.9396 16.3395 27.7234 16.2002 27.6308 15.9989C27.3682 15.4724 27.8315 14.5588 28.0477 14.2027C28.0632 14.1717 28.0632 14.1562 28.0632 14.1408C28.0632 14.1342 28.0632 14.1304 28.062 14.127C28.0604 14.1225 28.0566 14.1187 28.0477 14.1098C28.0168 14.0788 27.986 14.0633 27.9242 14.0324C27.8778 14.0169 27.8161 13.9704 27.8006 13.9549C27.43 13.5214 27.4918 13.0568 27.5999 12.7471C27.847 12.0503 28.5883 11.4619 29.4222 11.3071C29.8237 11.2451 30.1944 11.4619 30.2716 11.8181C30.3025 11.9884 30.2562 12.1278 30.1172 12.2516C29.9473 12.391 29.8237 12.422 29.7002 12.3291ZM26.0246 11.9264C26.1173 11.8955 26.2099 11.8955 26.318 11.8955C26.6578 11.9109 26.9666 12.1277 27.0593 12.391C27.152 12.6387 27.0748 12.871 26.8431 13.0103C26.735 13.0723 26.596 13.0568 26.4879 12.9484C26.318 12.7781 26.0709 12.7626 25.8238 12.9329C25.5304 13.1187 25.2833 13.4904 25.3605 13.7071C25.376 13.7691 25.4532 13.862 25.6848 13.831L25.762 13.8155C25.8084 13.8155 25.8393 13.8155 25.8856 13.8C25.9474 13.7846 26.0246 13.7691 26.0864 13.7691C26.3643 13.7536 26.5033 13.9549 26.5497 14.0788C26.6114 14.1872 26.6578 14.4039 26.4725 14.5898C26.3643 14.6982 26.2408 14.7911 26.0709 14.9149C25.7157 15.1782 25.0671 16.0298 25.2215 16.2931C25.2679 16.386 25.376 16.4015 25.5613 16.324C25.6231 16.3085 25.6848 16.2776 25.7312 16.2466C25.7543 16.2389 25.7775 16.2273 25.8007 16.2156C25.8238 16.204 25.847 16.1924 25.8702 16.1847C26.1636 16.0608 26.3026 16.0918 26.4725 16.324C26.596 16.4789 26.5806 16.7266 26.4261 16.9124C26.1327 17.2841 25.2679 17.5163 24.82 17.3615C24.6656 17.2996 24.3876 17.0828 24.264 16.7111C24.1559 16.4015 24.125 15.8595 24.6192 15.1162L24.7582 14.9304C24.7737 14.9149 24.7852 14.8995 24.7968 14.884L24.7968 14.884L24.7968 14.8839C24.8084 14.8685 24.82 14.853 24.8354 14.8375C24.8509 14.8065 24.8509 14.7756 24.8354 14.7601L24.7891 14.6982C24.7428 14.6517 24.7119 14.6207 24.681 14.5743L24.6192 14.5123C24.6038 14.4969 24.5883 14.4775 24.5729 14.4581C24.5575 14.4388 24.542 14.4194 24.5266 14.4039C24.3104 14.1407 24.264 13.8155 24.3721 13.4594C24.5729 12.809 25.2524 12.1742 26.0246 11.9264ZM41.1747 9.20116C41.1284 9.18568 41.0666 9.17019 40.9894 9.17019C40.7162 9.15577 40.2289 9.23531 39.7018 9.32133L39.7017 9.32134L39.5841 9.34052C39.5046 9.35379 39.4249 9.36738 39.3451 9.38097C38.8667 9.4625 38.3883 9.54403 37.9779 9.5573C37.5609 9.57279 37.422 9.68118 37.3139 10.0838C37.283 10.2077 37.1285 11.9419 37.0359 13.6917C36.866 16.8041 37.005 17.3615 37.0822 17.4389C37.1903 17.5783 37.3293 17.6402 37.4992 17.6402C37.8389 17.6402 38.0706 17.3925 38.0706 17.0363C38.0706 17.0134 38.097 16.0043 38.1237 14.9834L38.1243 14.9573L38.1246 14.9457C38.1517 13.9122 38.1787 12.8787 38.1787 12.8555C38.2096 12.7471 38.2868 12.6852 38.3949 12.6697C38.7724 12.6224 39.0237 12.5931 39.2384 12.5682L39.4296 12.5458C39.5312 12.5313 39.6329 12.5201 39.7473 12.5076L39.7475 12.5076L39.7476 12.5076C39.8766 12.4934 40.0219 12.4775 40.2018 12.4529C40.4334 12.4219 40.557 12.2516 40.5724 11.9419C40.5879 11.7406 40.557 11.6013 40.4798 11.5238C40.349 11.4073 40.0678 11.4415 39.7135 11.4847L39.6458 11.4929C39.337 11.5393 38.9509 11.5858 38.5339 11.5703C38.4258 11.5703 38.3331 11.4774 38.3177 11.3845C38.2405 10.858 38.364 10.6412 38.7501 10.5793C38.8466 10.5638 38.9383 10.5493 39.0254 10.5355C39.2868 10.4941 39.5068 10.4593 39.6922 10.4244L39.7313 10.418C40.5507 10.2836 40.8395 10.2362 41.1284 10.0838C41.3292 9.97539 41.4373 9.78957 41.4373 9.60376C41.4373 9.43343 41.3446 9.27858 41.1747 9.20116ZM46.1321 12.6232C45.8387 12.4219 45.5144 12.2516 45.1592 12.1432L45.1283 12.1277C45.0202 12.0968 44.9121 12.0658 44.8194 12.0193C44.7268 11.9729 44.6804 11.9109 44.665 11.818C44.6495 11.7096 44.6959 11.6013 44.7731 11.5238C45.1869 11.1385 45.5866 11.122 45.9316 11.1077L45.9777 11.1058C46.1012 11.1058 46.2248 11.1058 46.3483 11.0748C46.4873 11.0438 46.58 10.9819 46.6263 10.8735C46.6726 10.7651 46.6572 10.6257 46.5954 10.5173C46.3947 10.1767 45.9314 10.1302 45.5916 10.1147C44.2789 10.2076 43.5839 11.0438 43.3986 11.4619C43.1824 11.9419 43.3214 12.4065 43.7384 12.6697C44.0318 12.84 44.3407 12.9639 44.6495 13.0723C44.9739 13.1807 45.2827 13.2891 45.4835 13.4594C45.5916 13.5523 45.6379 13.6607 45.6225 13.7691C45.5792 14.0152 45.2118 14.1801 45.0253 14.2638L44.9893 14.2801C44.8194 14.342 44.6341 14.2956 44.526 14.1407C44.4797 14.0788 44.4179 14.0478 44.3252 14.0478H44.2634C44.1399 14.0633 43.9855 14.1562 43.8619 14.2956C43.7538 14.4194 43.7075 14.5743 43.7229 14.6827C43.8001 15.1627 44.1399 15.3175 44.4024 15.364C45.0974 15.4879 46.163 14.9924 46.5028 14.3885C46.8734 13.7226 46.7344 13.0568 46.1321 12.6232ZM42.611 11.4464C42.6882 10.4244 42.6419 10.378 42.472 10.2696C42.4257 10.2541 42.3794 10.2386 42.333 10.2386C42.1786 10.2231 42.0242 10.2851 41.9469 10.409C41.7925 10.6412 41.7307 10.858 41.6689 11.4154L41.6226 11.6942C41.4836 13.3046 41.2983 15.5188 41.3292 15.7821C41.3446 15.906 41.391 16.0143 41.4373 16.0918C41.5145 16.2311 41.6535 16.3085 41.7925 16.324C41.9315 16.3395 42.0859 16.2776 42.194 16.1537C42.3176 15.9989 42.3948 15.8285 42.3794 15.6427C42.3639 14.6517 42.3948 14.2182 42.4875 12.9484C42.5005 12.7785 42.5163 12.5947 42.5337 12.3925L42.5338 12.3911L42.5338 12.3904C42.5576 12.1141 42.5843 11.8034 42.611 11.4464Z"
        fill="#828899"/>
</svg>
