<svg width="76" height="28" viewBox="0 0 76 28" fill="none" xmlns="http://www.w3.org/2000/svg">
  <path
    d="M25.6264 9.9559C26.1549 6.25465 28.8622 4.01465 33.0622 4.01465C37.6979 4.01465 40.0622 6.75165 40.0622 10.6104V17.0819C40.0622 19.1346 40.2494 20.2861 40.5592 21.1576H36.4222C36.2052 20.5976 36.1107 19.7891 36.0792 18.8861C34.7107 20.8146 32.6562 21.6231 30.6664 21.6231C27.3992 21.6231 25.0664 20.0061 25.0664 16.8001C25.0664 14.5286 26.3422 12.8189 28.8937 11.9771C31.1022 11.2299 33.2494 11.0444 36.0494 11.0129V10.6086C36.0494 8.4614 35.0222 7.3099 32.8137 7.3099C30.9167 7.3099 29.8894 8.36865 29.6409 9.95415H25.6282L25.6264 9.9559ZM31.6919 18.6674C34.1489 18.6674 36.0477 16.6759 36.0477 14.1874V13.4716C30.3864 13.5644 29.0792 14.9031 29.0792 16.5831C29.0792 17.8589 30.0749 18.6674 31.6919 18.6674Z"
    fill="#181D29"/>
  <path
    d="M42.5488 27.9999V4.47995H46.5301V6.37695C47.5871 4.85269 49.0816 4.0127 50.9173 4.0127C55.2731 4.0127 57.9488 7.34119 57.9488 12.7854C57.9488 18.2297 55.2118 21.6212 50.9173 21.6212C49.0816 21.6212 47.5573 20.8442 46.5301 19.3497V27.9982H42.5488V27.9999ZM46.5318 12.7872C46.5318 16.3344 47.8688 18.3242 50.2033 18.3242C52.5378 18.3242 53.8433 16.3642 53.8433 12.7872C53.8433 9.2102 52.5361 7.31144 50.2033 7.31144C47.8706 7.31144 46.5318 9.23994 46.5318 12.7872Z"
    fill="#181D29"/>
  <path
    d="M60.0644 9.9559C60.5929 6.25465 63.3001 4.01465 67.5001 4.01465C72.1359 4.01465 74.5001 6.75165 74.5001 10.6104V17.0819C74.5001 19.1346 74.6874 20.2861 74.9971 21.1576H70.8601C70.6431 20.5976 70.5486 19.7891 70.5171 18.8861C69.1486 20.8146 67.0941 21.6231 65.1044 21.6231C61.8371 21.6231 59.5044 20.0061 59.5044 16.8001C59.5044 14.5286 60.7801 12.8189 63.3316 11.9771C65.5401 11.2299 67.6874 11.0444 70.4874 11.0129V10.6086C70.4874 8.4614 69.4601 7.3099 67.2516 7.3099C65.3546 7.3099 64.3274 8.36865 64.0789 9.95415H60.0661L60.0644 9.9559ZM66.1316 18.6674C68.5886 18.6674 70.4874 16.6759 70.4874 14.1874V13.4716C64.8261 13.5644 63.5189 14.9031 63.5189 16.5831C63.5189 17.8589 64.5146 18.6674 66.1316 18.6674Z"
    fill="#181D29"/>
  <path fill-rule="evenodd" clip-rule="evenodd"
        d="M19.6205 21.154C19.6204 21.1546 19.6204 21.1552 19.6204 21.1558V21.154H19.6205ZM15.979 12.2567C18.2815 14.6748 19.8074 17.7775 19.6205 21.154H24.0829C24.0461 19.7085 23.7941 18.2735 23.3619 16.9172C22.4274 14.0675 20.7479 11.5619 18.6164 9.5156C20.2634 7.36084 21.3796 4.80692 21.7256 2.07375C21.8254 1.386 21.8814 0.69125 21.8971 0H17.8651C17.9911 2.1315 17.5309 4.27175 16.5299 6.1635C16.3263 6.54317 16.0972 6.91549 15.8452 7.27764C14.7391 6.52824 13.5648 5.88208 12.3491 5.34975C11.4954 4.98946 10.5905 4.66713 9.66114 4.43416C9.64584 4.11982 9.62725 3.80549 9.60856 3.48955L9.6069 3.4615C9.5369 2.31875 9.4459 1.1585 9.3304 0H5.1304C5.2424 1.078 5.3334 2.156 5.4034 3.22175C5.42439 3.53477 5.44362 3.8443 5.45937 4.15382C4.88482 4.24166 4.3158 4.39085 3.75835 4.613C1.3801 5.57025 0.198854 7.9275 0.265354 10.3932C0.232104 12.5422 1.47285 14.4777 3.42235 15.2985C5.55735 16.2242 7.9811 15.9932 10.0584 15.4035C12.2285 14.7819 14.2473 13.6914 15.979 12.2567ZM13.3035 9.97815C12.536 9.44844 11.7332 8.98411 10.9159 8.59425C10.5934 8.44158 10.2082 8.28054 9.78539 8.13002C9.7854 8.13018 9.7854 8.13034 9.7854 8.1305C9.79049 8.45617 9.79393 8.7802 9.79733 9.09939L9.79765 9.12975L9.80115 9.128C9.8064 9.75625 9.8064 10.3705 9.80115 10.9672C8.7004 11.4117 7.57515 11.6427 6.48315 11.6427C6.36415 11.6427 6.24865 11.641 6.1314 11.634C5.96865 11.62 5.79015 11.5955 5.61515 11.557C5.62565 10.5927 5.62565 9.583 5.6099 8.54C5.60648 8.23006 5.5997 7.91846 5.59285 7.60353L5.59241 7.58327C4.67912 7.78023 3.95864 8.30688 3.7006 9.36425C3.2596 11.3172 4.03835 12.3882 6.06485 12.5667C8.62127 12.6925 11.2205 11.6418 13.3035 9.97815ZM5.44715 16.7878C5.82865 16.8315 6.2224 16.8542 6.62315 16.8542C7.5804 16.8542 8.5954 16.7283 9.65065 16.4762C9.5124 19.3463 9.3304 21.1558 9.3304 21.1558H5.1304C5.1304 21.1558 5.3054 19.4775 5.44715 16.7878Z"
        fill="#181D29"/>
</svg>
