<svg width="14" height="14" viewBox="0 0 14 14" fill="none" xmlns="http://www.w3.org/2000/svg">
  <path
    d="M7 1.75C11.2 1.75 12.25 2.8 12.25 7C12.25 11.2 11.2 12.25 7 12.25C2.8 12.25 1.75 11.2 1.75 7C1.75 2.8 2.8 1.75 7 1.75Z"
    fill="#FF6572"/>
  <path fill-rule="evenodd" clip-rule="evenodd"
        d="M8.63862 7.69563C8.89859 7.95595 8.8987 8.37776 8.63862 8.63801C8.37827 8.89836 7.95561 8.89836 7.69526 8.63801L8.63862 7.69563ZM5.36225 5.36164C5.62251 5.10157 6.04432 5.10167 6.30464 5.36164L7.00035 6.05735L7.69606 5.36164C7.95638 5.10167 8.37818 5.10157 8.63844 5.36164C8.89879 5.62199 8.89879 6.04465 8.63844 6.305L7.94322 7.00022L8.63862 7.69563L8.16694 8.16633L7.69526 8.63801L7.00035 7.9431L6.30543 8.63801L5.83375 8.16633L5.36207 7.69563L6.05748 7.00022L5.36225 6.305C5.1019 6.04465 5.1019 5.62199 5.36225 5.36164ZM5.36207 8.63801C5.62242 8.89836 6.04508 8.89836 6.30543 8.63801L5.36207 7.69563C5.1021 7.95595 5.10199 8.37776 5.36207 8.63801Z"
        fill="white"/>
</svg>
