<svg width="33" height="32" viewBox="0 0 33 32" fill="none" xmlns="http://www.w3.org/2000/svg">
  <path d="M16.5 4C26.1 4 28.5 6.4 28.5 16C28.5 25.6 26.1 28 16.5 28C6.9 28 4.5 25.6 4.5 16C4.5 6.4 6.9 4 16.5 4Z"
        fill="#FF6572"/>
  <path fill-rule="evenodd" clip-rule="evenodd"
        d="M12.8905 14.2761C12.3698 13.7554 12.3698 12.9112 12.8905 12.3905C13.4112 11.8698 14.2554 11.8698 14.7761 12.3905L16.5002 14.1145L18.2242 12.3905C18.7449 11.8698 19.5891 11.8698 20.1098 12.3905C20.6305 12.9112 20.6305 13.7554 20.1098 14.2761L18.3858 16.0002L20.1095 17.7239C20.6302 18.2446 20.6302 19.0888 20.1095 19.6095C19.5888 20.1302 18.7446 20.1302 18.2239 19.6095L16.5002 17.8858L14.7765 19.6095C14.2558 20.1302 13.4115 20.1302 12.8908 19.6095C12.3702 19.0888 12.3702 18.2446 12.8908 17.7239L14.6145 16.0002L12.8905 14.2761Z"
        fill="white"/>
</svg>

