<svg width="40" height="40" viewBox="0 0 40 40" fill="none" xmlns="http://www.w3.org/2000/svg">
  <path
    d="M13.333 11.6667C13.333 13.4348 14.0354 15.1305 15.2856 16.3807C16.5359 17.631 18.2316 18.3333 19.9997 18.3333C21.7678 18.3333 23.4635 17.631 24.7137 16.3807C25.964 15.1305 26.6663 13.4348 26.6663 11.6667C26.6663 9.89856 25.964 8.20286 24.7137 6.95262C23.4635 5.70238 21.7678 5 19.9997 5C18.2316 5 16.5359 5.70238 15.2856 6.95262C14.0354 8.20286 13.333 9.89856 13.333 11.6667Z"
    stroke="#6699FF" stroke-width="2.5" stroke-linecap="round" stroke-linejoin="round"/>
  <path
    d="M10 35V31.6667C10 29.8986 10.7024 28.2029 11.9526 26.9526C13.2029 25.7024 14.8986 25 16.6667 25H23.3333C23.9033 25 24.4567 25.0717 24.9833 25.2067"
    stroke="#6699FF" stroke-width="2.5" stroke-linecap="round" stroke-linejoin="round"/>
  <path d="M31.667 36.6667V26.6667" stroke="#F5690F" stroke-width="2.5" stroke-linecap="round" stroke-linejoin="round"/>
  <path d="M36.667 31.6667L31.667 26.6667L26.667 31.6667" stroke="#F5690F" stroke-width="2.5" stroke-linecap="round"
        stroke-linejoin="round"/>
</svg>
