<svg width="32" height="30" viewBox="0 0 32 30" fill="none" xmlns="http://www.w3.org/2000/svg">
  <path fill-rule="evenodd" clip-rule="evenodd"
        d="M26.0052 29.208C26.0052 29.2087 26.0051 29.2095 26.0051 29.2103V29.208H26.0052ZM21.1133 17.2553C24.2065 20.5038 26.2564 24.6719 26.0052 29.208H32C31.9506 27.2661 31.6121 25.3383 31.0314 23.5163C29.776 19.6879 27.5199 16.3219 24.6564 13.5729C26.869 10.6782 28.3684 7.24729 28.8333 3.57555C28.9673 2.65163 29.0425 1.7183 29.0637 0.789673H23.6471C23.8163 3.65313 23.198 6.52834 21.8533 9.06972C21.5799 9.57977 21.2721 10.0799 20.9335 10.5664C19.4476 9.55972 17.87 8.69165 16.2369 7.97653C15.09 7.4925 13.8744 7.05948 12.6258 6.74651C12.6053 6.32432 12.5803 5.90213 12.5552 5.47778L12.553 5.43985C12.4589 3.90468 12.3367 2.346 12.1815 0.789673H6.53923C6.68969 2.23786 6.81194 3.68604 6.90597 5.11777C6.93417 5.53829 6.96001 5.9541 6.98116 6.36992C6.20932 6.48792 5.44493 6.68834 4.69607 6.98678C1.50113 8.27275 -0.0857639 11.4395 0.00357223 14.752C-0.0410958 17.6389 1.62573 20.2391 4.24469 21.3417C7.11284 22.5853 10.3689 22.275 13.1595 21.4827C16.0748 20.6477 18.7869 19.1827 21.1133 17.2553ZM17.519 14.1943C16.488 13.4827 15.4095 12.8589 14.3115 12.3352C13.8783 12.1301 13.3607 11.9137 12.7927 11.7115C12.7927 11.7117 12.7927 11.712 12.7928 11.7122C12.7996 12.1496 12.8042 12.5849 12.8088 13.0136L12.8092 13.0546L12.8139 13.0522C12.821 13.8962 12.821 14.7214 12.8139 15.5231C11.3352 16.1202 9.8235 16.4305 8.35651 16.4305C8.19665 16.4305 8.04148 16.4282 7.88397 16.4188C7.66533 16.4 7.42553 16.3671 7.19044 16.3153C7.20455 15.02 7.20455 13.6635 7.18339 12.2623C7.17879 11.8459 7.16968 11.4273 7.16048 11.0043L7.15989 10.9771C5.933 11.2416 4.96512 11.9492 4.61849 13.3696C4.02605 15.9933 5.07222 17.432 7.79462 17.6718C11.2289 17.8408 14.7207 16.4293 17.519 14.1943ZM6.96475 23.3423C7.47725 23.4011 8.00622 23.4317 8.54459 23.4317C9.83056 23.4317 11.1941 23.2624 12.6117 22.9239C12.426 26.7794 12.1815 29.2103 12.1815 29.2103H6.53923C6.53923 29.2103 6.77432 26.9557 6.96475 23.3423Z"
        fill="#6699FF"/>
</svg>
