<svg width="65" height="24" viewBox="0 0 65 24" fill="none" xmlns="http://www.w3.org/2000/svg">
  <g clip-path="url(#clip0_1903_13753)">
    <path
      d="M22.2154 8.53354C22.6684 5.36104 24.9888 3.44104 28.5888 3.44104C32.5623 3.44104 34.5888 5.78704 34.5888 9.09454V14.6415C34.5888 16.401 34.7494 17.388 35.0149 18.135H31.4689C31.2829 17.655 31.2018 16.962 31.1748 16.188C30.0019 17.841 28.2409 18.534 26.5354 18.534C23.7349 18.534 21.7354 17.148 21.7354 14.4C21.7354 12.453 22.8289 10.9875 25.0159 10.266C26.9089 9.62554 28.7494 9.46654 31.1494 9.43954V9.09304C31.1494 7.25254 30.2688 6.26554 28.3758 6.26554C26.7498 6.26554 25.8694 7.17304 25.6564 8.53204H22.2169L22.2154 8.53354ZM27.4144 16.0005C29.5204 16.0005 31.1479 14.2935 31.1479 12.1605V11.547C26.2954 11.6265 25.1749 12.774 25.1749 14.214C25.1749 15.3075 26.0284 16.0005 27.4144 16.0005Z"
      fill="white"/>
    <path
      d="M36.7207 24V3.84001H40.1332V5.46601C41.0392 4.15951 42.3202 3.43951 43.8937 3.43951C47.6272 3.43951 49.9207 6.29251 49.9207 10.959C49.9207 15.6255 47.5747 18.5325 43.8937 18.5325C42.3202 18.5325 41.0137 17.8665 40.1332 16.5855V23.9985H36.7207V24ZM40.1347 10.9605C40.1347 14.001 41.2807 15.7065 43.2817 15.7065C45.2827 15.7065 46.4017 14.0265 46.4017 10.9605C46.4017 7.89451 45.2812 6.26701 43.2817 6.26701C41.2822 6.26701 40.1347 7.92001 40.1347 10.9605Z"
      fill="white"/>
    <path
      d="M51.7339 8.53354C52.1869 5.36104 54.5074 3.44104 58.1074 3.44104C62.0809 3.44104 64.1074 5.78704 64.1074 9.09454V14.6415C64.1074 16.401 64.2679 17.388 64.5334 18.135H60.9874C60.8014 17.655 60.7204 16.962 60.6934 16.188C59.5204 17.841 57.7594 18.534 56.0539 18.534C53.2534 18.534 51.2539 17.148 51.2539 14.4C51.2539 12.453 52.3474 10.9875 54.5344 10.266C56.4274 9.62554 58.2679 9.46654 60.6679 9.43954V9.09304C60.6679 7.25254 59.7874 6.26554 57.8944 6.26554C56.2684 6.26554 55.3879 7.17304 55.1749 8.53204H51.7354L51.7339 8.53354ZM56.9344 16.0005C59.0404 16.0005 60.6679 14.2935 60.6679 12.1605V11.547C55.8154 11.6265 54.6949 12.774 54.6949 14.214C54.6949 15.3075 55.5484 16.0005 56.9344 16.0005Z"
      fill="white"/>
    <path fill-rule="evenodd" clip-rule="evenodd"
          d="M17.067 18.132C17.0669 18.1325 17.0669 18.133 17.0669 18.1335V18.132H17.067ZM13.9457 10.5057C15.9193 12.5784 17.2273 15.2378 17.067 18.132H20.8919C20.8604 16.893 20.6444 15.663 20.2739 14.5005C19.4729 12.0578 18.0334 9.91021 16.2064 8.15623C17.6181 6.30929 18.5748 4.12022 18.8714 1.7775C18.9569 1.188 19.0049 0.5925 19.0184 0H15.5624C15.6704 1.827 15.2759 3.6615 14.4179 5.283C14.2434 5.60843 14.047 5.92757 13.8311 6.23797C12.883 5.59564 11.8764 5.04178 10.8344 4.5855C10.1026 4.27666 9.32694 4.00036 8.53027 3.80068C8.51717 3.53133 8.50124 3.26199 8.48523 2.99128L8.48379 2.967C8.42379 1.9875 8.34579 0.993 8.24679 0H4.64679C4.74279 0.924 4.82079 1.848 4.88079 2.7615C4.89878 3.02981 4.91527 3.29512 4.92876 3.56044C4.43634 3.63573 3.94866 3.7636 3.47089 3.954C1.43239 4.7745 0.419889 6.795 0.476889 8.9085C0.448389 10.7505 1.51189 12.4095 3.18289 13.113C5.01289 13.9065 7.09039 13.7085 8.87089 13.203C10.731 12.6702 12.4614 11.7355 13.9457 10.5057ZM11.6524 8.5527C10.9946 8.09866 10.3065 7.70066 9.60589 7.3665C9.3295 7.23563 8.99921 7.09757 8.63678 6.96854C8.63678 6.96869 8.63679 6.96885 8.63679 6.969C8.64115 7.248 8.6441 7.52559 8.64701 7.79904L8.64729 7.8255L8.65029 7.824C8.65479 8.3625 8.65479 8.889 8.65029 9.4005C7.70679 9.7815 6.74229 9.9795 5.80629 9.9795C5.70429 9.9795 5.60529 9.978 5.50479 9.972C5.36529 9.96 5.21229 9.939 5.06229 9.906C5.07129 9.0795 5.07129 8.214 5.05779 7.32C5.05485 7.05434 5.04905 6.78725 5.04318 6.51731L5.0428 6.49998C4.26005 6.66882 3.64254 7.12023 3.42139 8.0265C3.04339 9.7005 3.71089 10.6185 5.44789 10.7715C7.63911 10.8793 9.86703 9.97869 11.6524 8.5527ZM4.91829 14.3895C5.24529 14.427 5.58279 14.4465 5.92629 14.4465C6.74679 14.4465 7.61679 14.3385 8.52129 14.1225C8.40279 16.5825 8.24679 18.1335 8.24679 18.1335H4.64679C4.64679 18.1335 4.79679 16.695 4.91829 14.3895Z"
          fill="white"/>
  </g>
  <defs>
    <clipPath id="clip0_1903_13753">
      <rect width="64.5" height="24" fill="white" transform="translate(0.25)"/>
    </clipPath>
  </defs>
</svg>
