<svg width="33" height="32" viewBox="0 0 33 32" fill="none" xmlns="http://www.w3.org/2000/svg">
  <path
    d="M26.3332 16.7624L23.0079 20.0557M16.3332 26.6664L6.33325 16.7624C5.67365 16.1206 5.1541 15.3491 4.80731 14.4966C4.46052 13.6441 4.294 12.729 4.31823 11.809C4.34246 10.889 4.55693 9.98393 4.94812 9.15086C5.33932 8.3178 5.89876 7.57475 6.59123 6.96852C7.2837 6.36229 8.09419 5.906 8.97166 5.62839C9.84914 5.35078 10.7746 5.25786 11.6897 5.35548C12.6049 5.45311 13.4899 5.73916 14.2891 6.19562C15.0882 6.65209 15.7842 7.26908 16.3332 8.00775C16.8846 7.27444 17.5814 6.66284 18.38 6.21122C19.1787 5.7596 20.0619 5.47768 20.9745 5.38311C21.8871 5.28853 22.8094 5.38334 23.6836 5.6616C24.5579 5.93986 25.3653 6.39558 26.0553 7.00023C26.7453 7.60489 27.3031 8.34546 27.6938 9.1756C28.0845 10.0057 28.2996 10.9076 28.3257 11.8247C28.3517 12.7418 28.1883 13.6544 27.8454 14.5054C27.5026 15.3564 26.9878 16.1275 26.3332 16.7704"
    stroke="#6699FF" stroke-width="2" stroke-linecap="round" stroke-linejoin="round"/>
  <path d="M21.667 25.3335H29.667" stroke="#F5690F" stroke-width="2" stroke-linecap="round" stroke-linejoin="round"/>
</svg>
