<svg width="33" height="32" viewBox="0 0 33 32" fill="none" xmlns="http://www.w3.org/2000/svg">
  <path
    d="M26.0002 10.6665V17.3332C26.0002 19.1013 25.2978 20.797 24.0475 22.0472C22.7973 23.2975 21.1016 23.9998 19.3335 23.9998H15.3335M15.3335 23.9998L19.3335 19.9998M15.3335 23.9998L19.3335 27.9998"
    stroke="#6699FF" stroke-width="2" stroke-linecap="round" stroke-linejoin="round"/>
  <path
    d="M7.3335 21.3333V14.6667C7.3335 12.8986 8.03588 11.2029 9.28612 9.95262C10.5364 8.70238 12.2321 8 14.0002 8H18.0002M18.0002 8L14.0002 4M18.0002 8L14.0002 12"
    stroke="#6699FF" stroke-width="2" stroke-linecap="round" stroke-linejoin="round"/>
  <path
    d="M4.6665 24.0002C4.6665 24.7074 4.94746 25.3857 5.44755 25.8858C5.94765 26.3859 6.62593 26.6668 7.33317 26.6668C8.04041 26.6668 8.71869 26.3859 9.21879 25.8858C9.71889 25.3857 9.99984 24.7074 9.99984 24.0002C9.99984 23.2929 9.71889 22.6146 9.21879 22.1145C8.71869 21.6144 8.04041 21.3335 7.33317 21.3335C6.62593 21.3335 5.94765 21.6144 5.44755 22.1145C4.94746 22.6146 4.6665 23.2929 4.6665 24.0002Z"
    stroke="#F5690F" stroke-width="2" stroke-linecap="round" stroke-linejoin="round"/>
  <path
    d="M23.3335 8.00016C23.3335 8.70741 23.6144 9.38568 24.1145 9.88578C24.6146 10.3859 25.2929 10.6668 26.0002 10.6668C26.7074 10.6668 27.3857 10.3859 27.8858 9.88578C28.3859 9.38568 28.6668 8.70741 28.6668 8.00016C28.6668 7.29292 28.3859 6.61464 27.8858 6.11454C27.3857 5.61445 26.7074 5.3335 26.0002 5.3335C25.2929 5.3335 24.6146 5.61445 24.1145 6.11454C23.6144 6.61464 23.3335 7.29292 23.3335 8.00016Z"
    stroke="#F5690F" stroke-width="2" stroke-linecap="round" stroke-linejoin="round"/>
</svg>
