<svg width="32" height="32" viewBox="0 0 32 32" fill="none" xmlns="http://www.w3.org/2000/svg">
  <path
    d="M10.6665 9.33333C10.6665 10.7478 11.2284 12.1044 12.2286 13.1046C13.2288 14.1048 14.5853 14.6667 15.9998 14.6667C17.4143 14.6667 18.7709 14.1048 19.7711 13.1046C20.7713 12.1044 21.3332 10.7478 21.3332 9.33333C21.3332 7.91885 20.7713 6.56229 19.7711 5.5621C18.7709 4.5619 17.4143 4 15.9998 4C14.5853 4 13.2288 4.5619 12.2286 5.5621C11.2284 6.56229 10.6665 7.91885 10.6665 9.33333Z"
    stroke="#6699FF" stroke-width="2" stroke-linecap="round" stroke-linejoin="round"/>
  <path d="M8 28V25.3333C8 23.9188 8.5619 22.5623 9.5621 21.5621C10.5623 20.5619 11.9188 20 13.3333 20H14"
        stroke="#6699FF" stroke-width="2" stroke-linecap="round" stroke-linejoin="round"/>
  <path
    d="M23.7336 27.756L20.8377 29.2733C20.7517 29.318 20.655 29.338 20.5584 29.331C20.4618 29.3239 20.369 29.2902 20.2904 29.2335C20.2119 29.1768 20.1506 29.0993 20.1135 29.0098C20.0764 28.9203 20.0649 28.8223 20.0803 28.7266L20.6337 25.512L18.291 23.236C18.2211 23.1684 18.1715 23.0825 18.1481 22.9881C18.1247 22.8937 18.1282 22.7946 18.1584 22.7022C18.1886 22.6097 18.2441 22.5276 18.3187 22.4652C18.3933 22.4028 18.484 22.3626 18.5803 22.3493L21.8177 21.88L23.2656 18.956C23.309 18.8689 23.3757 18.7956 23.4584 18.7444C23.5411 18.6932 23.6364 18.666 23.7336 18.666C23.8309 18.666 23.9262 18.6932 24.0089 18.7444C24.0916 18.7956 24.1583 18.8689 24.2016 18.956L25.6497 21.88L28.887 22.3493C28.983 22.3631 29.0733 22.4035 29.1476 22.466C29.2219 22.5284 29.2772 22.6104 29.3073 22.7027C29.3374 22.7949 29.3411 22.8938 29.3179 22.988C29.2948 23.0823 29.2457 23.1682 29.1763 23.236L26.8337 25.512L27.3857 28.7253C27.4022 28.8211 27.3916 28.9197 27.355 29.0098C27.3183 29.0998 27.2572 29.1778 27.1784 29.2349C27.0997 29.292 27.0065 29.3258 26.9095 29.3326C26.8125 29.3394 26.7156 29.3189 26.6297 29.2733L23.7336 27.756Z"
    stroke="#F5690F" stroke-width="2" stroke-linecap="round" stroke-linejoin="round"/>
</svg>
