<svg width="33" height="32" viewBox="0 0 33 32" fill="none" xmlns="http://www.w3.org/2000/svg">
  <path
    d="M12.3335 16C12.3335 17.0609 12.7549 18.0783 13.5051 18.8284C14.2552 19.5786 15.2726 20 16.3335 20C17.3944 20 18.4118 19.5786 19.1619 18.8284C19.9121 18.0783 20.3335 17.0609 20.3335 16C20.3335 14.9391 19.9121 13.9217 19.1619 13.1716C18.4118 12.4214 17.3944 12 16.3335 12C15.2726 12 14.2552 12.4214 13.5051 13.1716C12.7549 13.9217 12.3335 14.9391 12.3335 16Z"
    stroke="#6699FF" stroke-width="2" stroke-linecap="round" stroke-linejoin="round"/>
  <path fill-rule="evenodd" clip-rule="evenodd"
        d="M26.667 18.6665C26.667 18.1142 26.2193 17.6665 25.667 17.6665C25.1147 17.6665 24.667 18.1142 24.667 18.6665V19.0183C23.9939 19.0935 23.3622 19.3949 22.8787 19.8785C22.3161 20.4411 22 21.2042 22 21.9998C22 22.7955 22.3161 23.5585 22.8787 24.1211C23.4413 24.6837 24.2043 24.9998 25 24.9998H26.3333C26.5985 24.9998 26.8529 25.1052 27.0404 25.2927C27.228 25.4802 27.3333 25.7346 27.3333 25.9998C27.3333 26.265 27.228 26.5194 27.0404 26.7069C26.8529 26.8945 26.5985 26.9998 26.3333 26.9998H23C22.4477 26.9998 22 27.4475 22 27.9998C22 28.5521 22.4477 28.9998 23 28.9998H24.667V29.3332C24.667 29.8855 25.1147 30.3332 25.667 30.3332C26.2193 30.3332 26.667 29.8855 26.667 29.3332V28.9812C27.3399 28.9059 27.9713 28.6045 28.4547 28.1211C29.0173 27.5585 29.3333 26.7955 29.3333 25.9998C29.3333 25.2042 29.0173 24.4411 28.4547 23.8785C27.892 23.3159 27.129 22.9998 26.3333 22.9998H25C24.7348 22.9998 24.4804 22.8945 24.2929 22.7069C24.1054 22.5194 24 22.265 24 21.9998C24 21.7346 24.1054 21.4802 24.2929 21.2927C24.4804 21.1052 24.7348 20.9998 25 20.9998H25.6605C25.6627 20.9998 25.6648 20.9998 25.667 20.9998C25.6692 20.9998 25.6713 20.9998 25.6735 20.9998H28.3333C28.8856 20.9998 29.3333 20.5521 29.3333 19.9998C29.3333 19.4475 28.8856 18.9998 28.3333 18.9998H26.667V18.6665Z"
        fill="#F5690F"/>
  <path
    d="M28.3335 15V10.6667C28.3335 9.95942 28.0525 9.28115 27.5524 8.78105C27.0524 8.28095 26.3741 8 25.6668 8H7.00016C6.29292 8 5.61464 8.28095 5.11454 8.78105C4.61445 9.28115 4.3335 9.95942 4.3335 10.6667V21.3333C4.3335 22.0406 4.61445 22.7189 5.11454 23.219C5.61464 23.719 6.29292 24 7.00016 24H17.8335"
    stroke="#6699FF" stroke-width="2" stroke-linecap="round" stroke-linejoin="round"/>
  <path d="M24.3335 16H24.3468" stroke="#6699FF" stroke-width="2" stroke-linecap="round" stroke-linejoin="round"/>
  <path d="M8.3335 16H8.34683" stroke="#6699FF" stroke-width="2" stroke-linecap="round" stroke-linejoin="round"/>
</svg>
