<svg xmlns="http://www.w3.org/2000/svg" version="1.1" xmlns:xlink="http://www.w3.org/1999/xlink" width="37" height="32"><svg width="37" height="32" viewBox="0 0 37 32" fill="none" xmlns="http://www.w3.org/2000/svg">
  <path fill-rule="evenodd" clip-rule="evenodd" d="M29.2804 31.9973C29.2803 31.9982 29.2803 31.9991 29.2802 32V31.9973H29.2804ZM23.7723 18.5393C27.2551 22.197 29.5632 26.89 29.2804 31.9973H36.0301C35.9746 29.8109 35.5934 27.6403 34.9396 25.5889C33.5261 21.2783 30.9858 17.4884 27.7616 14.3932C30.2529 11.1339 31.9412 7.2709 32.4646 3.13673C32.6155 2.09645 32.7002 1.04558 32.724 0H26.6252C26.8158 3.22409 26.1197 6.46141 24.6056 9.32285C24.2977 9.89714 23.9511 10.4603 23.57 11.0081C21.8969 9.87456 20.1206 8.89717 18.2818 8.09198C16.9904 7.54698 15.6216 7.0594 14.2158 6.70702C14.1926 6.23149 14.1645 5.75597 14.1362 5.27802L14.1337 5.23583C14.0279 3.50732 13.8902 1.75234 13.7155 0H7.36263C7.53204 1.63057 7.66968 3.26114 7.77556 4.87319C7.80731 5.34667 7.8364 5.81487 7.86022 6.28306C6.99123 6.41593 6.13063 6.64158 5.2875 6.97758C1.69018 8.42551 -0.0965652 11.9911 0.00402212 15.7207C-0.0462715 18.9713 1.83048 21.8989 4.77927 23.1404C8.00865 24.5406 11.6748 24.1912 14.8168 23.2992C18.0993 22.359 21.153 20.7095 23.7723 18.5393ZM19.7254 15.0928C18.5645 14.2916 17.3502 13.5893 16.1139 12.9996C15.6261 12.7686 15.0433 12.525 14.4037 12.2973C14.4037 12.2976 14.4037 12.2978 14.4037 12.2981C14.4114 12.7906 14.4166 13.2807 14.4218 13.7634L14.4223 13.8096L14.4276 13.8069C14.4355 14.7572 14.4355 15.6863 14.4276 16.589C12.7626 17.2613 11.0605 17.6107 9.40878 17.6107C9.22879 17.6107 9.05408 17.6081 8.87673 17.5975C8.63056 17.5763 8.36056 17.5392 8.09586 17.481C8.11174 16.0225 8.11174 14.4952 8.08791 12.9175C8.08273 12.4486 8.07248 11.9772 8.06212 11.5008L8.06146 11.4704C6.68013 11.7684 5.59042 12.565 5.20015 14.1643C4.5331 17.1184 5.71103 18.7383 8.77629 19.0083C12.6431 19.1985 16.5747 17.6093 19.7254 15.0928ZM7.84174 25.393C8.41879 25.4592 9.01438 25.4936 9.62055 25.4936C11.0685 25.4936 12.6038 25.303 14.1999 24.9218C13.9908 29.263 13.7155 32 13.7155 32H7.36263C7.36263 32 7.62733 29.4615 7.84174 25.393Z" fill="#6699FF"></path>
</svg><style>@media (prefers-color-scheme: light) { :root { filter: contrast(1) brightness(0.9); } }
@media (prefers-color-scheme: dark) { :root { filter: none; } }
</style></svg>