<svg width="18" height="19" viewBox="0 0 18 19" fill="none" xmlns="http://www.w3.org/2000/svg">
  <path d="M6.6001 6.1001L17.0001 16.5001M6.6001 12.9L17.0001 2.5" stroke="url(#paint0_linear_3020_5603)"
        stroke-width="2" stroke-linecap="round" stroke-linejoin="round"/>
  <path
    d="M1 4.5C1 5.29565 1.31607 6.05871 1.87868 6.62132C2.44129 7.18393 3.20435 7.5 4 7.5C4.79565 7.5 5.55871 7.18393 6.12132 6.62132C6.68393 6.05871 7 5.29565 7 4.5C7 3.70435 6.68393 2.94129 6.12132 2.37868C5.55871 1.81607 4.79565 1.5 4 1.5C3.20435 1.5 2.44129 1.81607 1.87868 2.37868C1.31607 2.94129 1 3.70435 1 4.5Z"
    stroke="url(#paint1_linear_3020_5603)" stroke-width="2" stroke-linecap="round" stroke-linejoin="round"/>
  <path
    d="M1 14.5C1 15.2956 1.31607 16.0587 1.87868 16.6213C2.44129 17.1839 3.20435 17.5 4 17.5C4.79565 17.5 5.55871 17.1839 6.12132 16.6213C6.68393 16.0587 7 15.2956 7 14.5C7 13.7044 6.68393 12.9413 6.12132 12.3787C5.55871 11.8161 4.79565 11.5 4 11.5C3.20435 11.5 2.44129 11.8161 1.87868 12.3787C1.31607 12.9413 1 13.7044 1 14.5Z"
    stroke="url(#paint2_linear_3020_5603)" stroke-width="2" stroke-linecap="round" stroke-linejoin="round"/>
  <defs>
    <linearGradient id="paint0_linear_3020_5603" x1="6.87782" y1="1.48512" x2="5.90302" y2="12.4126"
                    gradientUnits="userSpaceOnUse">
      <stop stop-color="#FFA74F"/>
      <stop offset="1" stop-color="#E65C00"/>
    </linearGradient>
    <linearGradient id="paint1_linear_3020_5603" x1="1.16023" y1="1.06505" x2="0.848785" y2="5.76485"
                    gradientUnits="userSpaceOnUse">
      <stop stop-color="#FFA74F"/>
      <stop offset="1" stop-color="#E65C00"/>
    </linearGradient>
    <linearGradient id="paint2_linear_3020_5603" x1="1.16023" y1="11.0651" x2="0.848785" y2="15.7649"
                    gradientUnits="userSpaceOnUse">
      <stop stop-color="#FFA74F"/>
      <stop offset="1" stop-color="#E65C00"/>
    </linearGradient>
  </defs>
</svg>
