<svg width="24" height="25" viewBox="0 0 24 25" fill="none" xmlns="http://www.w3.org/2000/svg">
  <path
    d="M15 8.5H15.01M3 16.5L8 11.5C8.928 10.607 10.072 10.607 11 11.5L16 16.5M14 14.5L15 13.5C15.928 12.607 17.072 12.607 18 13.5L21 16.5M3 6.5C3 5.70435 3.31607 4.94129 3.87868 4.37868C4.44129 3.81607 5.20435 3.5 6 3.5H18C18.7956 3.5 19.5587 3.81607 20.1213 4.37868C20.6839 4.94129 21 5.70435 21 6.5V18.5C21 19.2956 20.6839 20.0587 20.1213 20.6213C19.5587 21.1839 18.7956 21.5 18 21.5H6C5.20435 21.5 4.44129 21.1839 3.87868 20.6213C3.31607 20.0587 3 19.2956 3 18.5V6.5Z"
    stroke="url(#paint0_linear_4009_1155)" stroke-width="2" stroke-linecap="round" stroke-linejoin="round"/>
  <defs>
    <linearGradient id="paint0_linear_4009_1155" x1="3" y1="3.5" x2="3" y2="21.5" gradientUnits="userSpaceOnUse">
      <stop stop-color="#29CC75"/>
      <stop offset="1" stop-color="#007A39"/>
    </linearGradient>
  </defs>
</svg>
