<svg width="24" height="25" viewBox="0 0 24 25" fill="none" xmlns="http://www.w3.org/2000/svg">
  <path
    d="M19.1025 3.50488C19.6067 3.55621 20 3.98232 20 4.5V20.5C20 21.0523 19.5523 21.5 19 21.5H7C6.20435 21.5 5.44152 21.1837 4.87891 20.6211C4.38671 20.1289 4.08291 19.4835 4.01465 18.7969L4 18.5V6.5C4 5.70435 4.3163 4.94152 4.87891 4.37891C5.44152 3.8163 6.20435 3.5 7 3.5H19L19.1025 3.50488ZM7 17.5C6.73478 17.5 6.48051 17.6054 6.29297 17.793C6.10543 17.9805 6 18.2348 6 18.5L6.00488 18.5986C6.02757 18.8276 6.12883 19.0429 6.29297 19.207C6.48051 19.3946 6.73478 19.5 7 19.5H18V17.5H7ZM7 5.5C6.73478 5.5 6.4805 5.60543 6.29297 5.79297C6.10543 5.9805 6 6.23478 6 6.5V15.6748C6.31847 15.562 6.65567 15.5 7 15.5H18V5.5H7Z"
    fill="url(#paint0_linear_4019_902)"/>
  <path d="M9 8.5H15" stroke="url(#paint1_linear_4019_902)" stroke-width="2" stroke-linecap="round"
        stroke-linejoin="round"/>
  <defs>
    <linearGradient id="paint0_linear_4019_902" x1="12" y1="27.5" x2="12.8832" y2="3.51411"
                    gradientUnits="userSpaceOnUse">
      <stop stop-color="#BE90EF"/>
      <stop offset="1" stop-color="#6931CC"/>
    </linearGradient>
    <linearGradient id="paint1_linear_4019_902" x1="7.28947" y1="7.62105" x2="7.2688" y2="9.44641"
                    gradientUnits="userSpaceOnUse">
      <stop stop-color="#A25FE8"/>
      <stop offset="1" stop-color="#6931CC"/>
    </linearGradient>
  </defs>
</svg>
