<svg width="24" height="25" viewBox="0 0 24 25" fill="none" xmlns="http://www.w3.org/2000/svg">
  <path
    d="M18.1543 4.50391C19.7394 4.58421 21 5.89489 21 7.5V18.5L20.9961 18.6543C20.9184 20.1883 19.6883 21.4184 18.1543 21.4961L18 21.5H6L5.8457 21.4961C4.31166 21.4184 3.08163 20.1883 3.00391 18.6543L3 18.5V13C3 8.45231 6.57139 4.73844 11.0625 4.51074L11.5 4.5H18L18.1543 4.50391ZM5.02051 12.5C5.00795 12.6651 5 12.8317 5 13V18.5C5 19.0523 5.44772 19.5 6 19.5H18C18.5523 19.5 19 19.0523 19 18.5V12.5H5.02051ZM17 14.5C17.5523 14.5 18 14.9477 18 15.5C18 16.0523 17.5523 16.5 17 16.5H12.5C11.9477 16.5 11.5 16.0523 11.5 15.5C11.5 14.9477 11.9477 14.5 12.5 14.5H17ZM11.5 6.5C8.79617 6.5 6.47866 8.15121 5.49902 10.5H19V7.5C19 6.94772 18.5523 6.5 18 6.5H11.5Z"
    fill="url(#paint0_linear_4019_9)"/>
  <defs>
    <linearGradient id="paint0_linear_4019_9" x1="3" y1="4.5" x2="3" y2="21.5" gradientUnits="userSpaceOnUse">
      <stop stop-color="#29CCB1"/>
      <stop offset="1" stop-color="#0D8565"/>
    </linearGradient>
  </defs>
</svg>
