<svg width="24" height="25" viewBox="0 0 24 25" fill="none" xmlns="http://www.w3.org/2000/svg">
  <path
    d="M5.00046 7.7C5.00046 7.11653 5.23225 6.55695 5.64483 6.14437C6.05741 5.73179 6.61698 5.5 7.20046 5.5H8.20046C8.78136 5.49967 9.33855 5.26961 9.75046 4.86L10.4505 4.16C10.6549 3.9544 10.898 3.79125 11.1657 3.67991C11.4334 3.56858 11.7205 3.51126 12.0105 3.51126C12.3004 3.51126 12.5875 3.56858 12.8552 3.67991C13.1229 3.79125 13.366 3.9544 13.5705 4.16L14.2705 4.86C14.6825 5.27 15.2405 5.5 15.8205 5.5H16.8205C17.4039 5.5 17.9635 5.73179 18.3761 6.14437C18.7887 6.55695 19.0205 7.11653 19.0205 7.7V8.7C19.0205 9.28 19.2505 9.838 19.6605 10.25L20.3605 10.95C20.5661 11.1545 20.7292 11.3975 20.8406 11.6652C20.9519 11.933 21.0092 12.2201 21.0092 12.51C21.0092 12.8 20.9519 13.087 20.8406 13.3548C20.7292 13.6225 20.5661 13.8656 20.3605 14.07L19.6605 14.77C19.2509 15.1819 19.0208 15.7391 19.0205 16.32V17.32C19.0205 17.9035 18.7887 18.4631 18.3761 18.8756C17.9635 19.2882 17.4039 19.52 16.8205 19.52H15.8205C15.2396 19.5203 14.6824 19.7504 14.2705 20.16L13.5705 20.86C13.366 21.0656 13.1229 21.2288 12.8552 21.3401C12.5875 21.4514 12.3004 21.5087 12.0105 21.5087C11.7205 21.5087 11.4334 21.4514 11.1657 21.3401C10.898 21.2288 10.6549 21.0656 10.4505 20.86L9.75046 20.16C9.33855 19.7504 8.78136 19.5203 8.20046 19.52H7.20046C6.61698 19.52 6.05741 19.2882 5.64483 18.8756C5.23225 18.4631 5.00046 17.9035 5.00046 17.32V16.32C5.00013 15.7391 4.77006 15.1819 4.36046 14.77L3.66046 14.07C3.45486 13.8656 3.2917 13.6225 3.18037 13.3548C3.06903 13.087 3.01172 12.8 3.01172 12.51C3.01172 12.2201 3.06903 11.933 3.18037 11.6652C3.2917 11.3975 3.45486 11.1545 3.66046 10.95L4.36046 10.25C4.77006 9.83809 5.00013 9.2809 5.00046 8.7V7.7Z"
    stroke="url(#paint0_linear_4020_783)" stroke-width="2" stroke-linecap="round" stroke-linejoin="round"/>
  <defs>
    <linearGradient id="paint0_linear_4020_783" x1="3.10284" y1="3.06978" x2="2.85335" y2="21.384"
                    gradientUnits="userSpaceOnUse">
      <stop stop-color="#FA667C"/>
      <stop offset="1" stop-color="#F43646"/>
    </linearGradient>
  </defs>
</svg>
