<svg width="24" height="25" viewBox="0 0 24 25" fill="none" xmlns="http://www.w3.org/2000/svg">
  <path
    d="M10.0007 3.69998C8.4364 4.06262 6.99761 4.83718 5.83358 5.94332C4.66954 7.04946 3.82264 8.44689 3.38072 9.99066C2.93881 11.5344 2.91798 13.1683 3.32039 14.7229C3.72279 16.2774 4.53378 17.696 5.66924 18.8314C6.8047 19.9669 8.22327 20.7779 9.77781 21.1803C11.3323 21.5827 12.9662 21.5619 14.51 21.12C16.0538 20.678 17.4512 19.8311 18.5574 18.6671C19.6635 17.5031 20.4381 16.0643 20.8007 14.5C20.8007 14.2348 20.6953 13.9804 20.5078 13.7929C20.3203 13.6053 20.0659 13.5 19.8007 13.5H13.0007C12.4703 13.5 11.9616 13.2893 11.5865 12.9142C11.2114 12.5391 11.0007 12.0304 11.0007 11.5V4.49998C10.9883 4.38151 10.9525 4.26668 10.8953 4.16215C10.8382 4.05763 10.7608 3.96548 10.6678 3.89107C10.5748 3.81665 10.4679 3.76144 10.3534 3.72864C10.2389 3.69584 10.119 3.6861 10.0007 3.69998Z"
    stroke="url(#paint0_linear_4019_2039)" stroke-width="2" stroke-linecap="round" stroke-linejoin="round"/>
  <path
    d="M15 4C16.2697 4.44708 17.423 5.1733 18.3748 6.12516C19.3267 7.07702 20.0529 8.23028 20.5 9.5H16C15.7348 9.5 15.4804 9.39464 15.2929 9.20711C15.1054 9.01957 15 8.76522 15 8.5V4Z"
    stroke="url(#paint1_linear_4019_2039)" stroke-width="2" stroke-linecap="round" stroke-linejoin="round"/>
  <defs>
    <linearGradient id="paint0_linear_4019_2039" x1="3.0332" y1="3.69385" x2="3.0332" y2="21.4675"
                    gradientUnits="userSpaceOnUse">
      <stop stop-color="#29CCB1"/>
      <stop offset="1" stop-color="#0D8565"/>
    </linearGradient>
    <linearGradient id="paint1_linear_4019_2039" x1="15" y1="4" x2="15" y2="9.5" gradientUnits="userSpaceOnUse">
      <stop stop-color="#29CCB1"/>
      <stop offset="1" stop-color="#0D8565"/>
    </linearGradient>
  </defs>
</svg>
