<svg width="56" height="56" viewBox="0 0 56 56" fill="none" xmlns="http://www.w3.org/2000/svg">
  <rect width="56" height="56" rx="28" fill="#6699FF"/>
  <path
    d="M36.1667 26.819H22.6497L26.4916 22.9772C26.7041 22.7571 26.8217 22.4624 26.819 22.1565C26.8164 21.8506 26.6937 21.558 26.4774 21.3417C26.2611 21.1254 25.9684 21.0027 25.6625 21C25.3566 20.9974 25.0619 21.115 24.8419 21.3275L19.0086 27.1608C18.7899 27.3796 18.667 27.6763 18.667 27.9857C18.667 28.295 18.7899 28.5917 19.0086 28.8105L24.8419 34.6438C24.9495 34.7553 25.0783 34.8441 25.2206 34.9053C25.3629 34.9664 25.516 34.9986 25.6709 35C25.8259 35.0013 25.9795 34.9718 26.1229 34.9131C26.2662 34.8545 26.3965 34.7678 26.506 34.6583C26.6156 34.5487 26.7022 34.4185 26.7609 34.2751C26.8195 34.1317 26.849 33.9781 26.8477 33.8232C26.8464 33.6683 26.8142 33.5152 26.753 33.3729C26.6919 33.2305 26.603 33.1018 26.4916 32.9942L22.6497 29.1523H36.1667C36.4762 29.1523 36.7729 29.0294 36.9917 28.8106C37.2105 28.5918 37.3334 28.2951 37.3334 27.9857C37.3334 27.6762 37.2105 27.3795 36.9917 27.1607C36.7729 26.9419 36.4762 26.819 36.1667 26.819Z"
    fill="white"/>
</svg>
