<svg width="24" height="25" viewBox="0 0 24 25" fill="none" xmlns="http://www.w3.org/2000/svg">
  <path
    d="M12 15.5C12 16.0304 12.2107 16.5391 12.5858 16.9142C12.9609 17.2893 13.4696 17.5 14 17.5C14.5304 17.5 15.0391 17.2893 15.4142 16.9142C15.7893 16.5391 16 16.0304 16 15.5C16 14.9696 15.7893 14.4609 15.4142 14.0858C15.0391 13.7107 14.5304 13.5 14 13.5C13.4696 13.5 12.9609 13.7107 12.5858 14.0858C12.2107 14.4609 12 14.9696 12 15.5Z"
    stroke="black" stroke-width="2" stroke-linecap="round" stroke-linejoin="round"/>
  <path
    d="M12 15.5C12 16.0304 12.2107 16.5391 12.5858 16.9142C12.9609 17.2893 13.4696 17.5 14 17.5C14.5304 17.5 15.0391 17.2893 15.4142 16.9142C15.7893 16.5391 16 16.0304 16 15.5C16 14.9696 15.7893 14.4609 15.4142 14.0858C15.0391 13.7107 14.5304 13.5 14 13.5C13.4696 13.5 12.9609 13.7107 12.5858 14.0858C12.2107 14.4609 12 14.9696 12 15.5Z"
    stroke="url(#paint0_linear_4019_982)" stroke-width="2" stroke-linecap="round" stroke-linejoin="round"/>
  <path fill-rule="evenodd" clip-rule="evenodd"
        d="M6 22.5H18C18.7957 22.5 19.5587 22.1839 20.1213 21.6213C20.6839 21.0587 21 20.2957 21 19.5V13.68C20.9999 12.7485 20.783 11.8298 20.3664 10.9967L19.4224 9.10879C19.1447 8.55341 19.0001 7.94095 19 7.32V5.5C19 4.70435 18.6839 3.94129 18.1213 3.37868C17.5587 2.81607 16.7956 2.5 16 2.5H8C7.20435 2.5 6.44129 2.81607 5.87868 3.37868C5.31607 3.94129 5 4.70435 5 5.5V8.26393L3.6336 10.9967C3.21701 11.8298 3.00006 12.7485 3 13.6799V19.5C3 20.2957 3.31607 21.0587 3.87868 21.6213C4.44129 22.1839 5.20435 22.5 6 22.5ZM7.29289 4.79289C7.48043 4.60536 7.73478 4.5 8 4.5H16C16.2652 4.5 16.5196 4.60536 16.7071 4.79289C16.8946 4.98043 17 5.23478 17 5.5V7.32C17.0001 8.25144 17.217 9.17013 17.6336 10.0032L18.5776 11.8912C18.8553 12.4466 18.9999 13.0591 19 13.68V19.5C19 19.7652 18.8946 20.0196 18.7071 20.2071C18.5196 20.3946 18.2652 20.5 18 20.5H8.82843C8.94094 20.1818 9 19.8439 9 19.5V13.68C8.99994 12.7486 8.78302 11.8299 8.36643 10.9968L7 8.26393V5.5C7 5.23478 7.10536 4.98043 7.29289 4.79289ZM6 10.7361L5.42243 11.8912C5.1447 12.4466 5.00005 13.0591 5 13.68V19.5C5 19.7652 5.10536 20.0196 5.29289 20.2071C5.48043 20.3946 5.73478 20.5 6 20.5C6.26522 20.5 6.51957 20.3946 6.70711 20.2071C6.89464 20.0196 7 19.7652 7 19.5V13.6801C6.99995 13.0591 6.85533 12.4466 6.5776 11.8913L6 10.7361Z"
        fill="url(#paint1_linear_4019_982)"/>
  <path d="M11 7.5H13" stroke="url(#paint2_linear_4019_982)" stroke-width="2" stroke-linecap="round"
        stroke-linejoin="round"/>
  <defs>
    <linearGradient id="paint0_linear_4019_982" x1="12" y1="13.5" x2="12" y2="17.5" gradientUnits="userSpaceOnUse">
      <stop stop-color="#29CCB1"/>
      <stop offset="1" stop-color="#12B388"/>
    </linearGradient>
    <linearGradient id="paint1_linear_4019_982" x1="3" y1="2.5" x2="3" y2="22.5" gradientUnits="userSpaceOnUse">
      <stop stop-color="#29CCB1"/>
      <stop offset="1" stop-color="#12B388"/>
    </linearGradient>
    <linearGradient id="paint2_linear_4019_982" x1="11" y1="7.5" x2="11" y2="8.5" gradientUnits="userSpaceOnUse">
      <stop stop-color="#29CCB1"/>
      <stop offset="1" stop-color="#12B388"/>
    </linearGradient>
  </defs>
</svg>
