<svg width="24" height="25" viewBox="0 0 24 25" fill="none" xmlns="http://www.w3.org/2000/svg">
  <path d="M12 16.5V20.5M9 20.5H15" stroke="url(#paint0_linear_4019_1049)" stroke-width="2" stroke-linecap="round"
        stroke-linejoin="round"/>
  <path
    d="M3 4.5H21M4 4.5V14.5C4 15.0304 4.21071 15.5391 4.58579 15.9142C4.96086 16.2893 5.46957 16.5 6 16.5H18C18.5304 16.5 19.0391 16.2893 19.4142 15.9142C19.7893 15.5391 20 15.0304 20 14.5V4.5"
    stroke="url(#paint1_linear_4019_1049)" stroke-width="2" stroke-linecap="round" stroke-linejoin="round"/>
  <path d="M8 12.5L11 9.5L13 11.5L16 8.5" stroke="url(#paint2_linear_4019_1049)" stroke-width="2" stroke-linecap="round"
        stroke-linejoin="round"/>
  <defs>
    <linearGradient id="paint0_linear_4019_1049" x1="9" y1="20.5" x2="9" y2="21.5" gradientUnits="userSpaceOnUse">
      <stop stop-color="#FF84BE"/>
      <stop offset="1" stop-color="#FF4D89"/>
    </linearGradient>
    <linearGradient id="paint1_linear_4019_1049" x1="4" y1="4.5" x2="4" y2="16.5" gradientUnits="userSpaceOnUse">
      <stop stop-color="#FF84BE"/>
      <stop offset="1" stop-color="#FF4D89"/>
    </linearGradient>
    <linearGradient id="paint2_linear_4019_1049" x1="8" y1="8.5" x2="8" y2="12.5" gradientUnits="userSpaceOnUse">
      <stop stop-color="#FF84BE"/>
      <stop offset="1" stop-color="#FF4D89"/>
    </linearGradient>
  </defs>
</svg>
