<svg width="24" height="25" viewBox="0 0 24 25" fill="none" xmlns="http://www.w3.org/2000/svg">
  <path
    d="M7 4.5V21.5M4 4.5V7.5C4 7.89397 4.0776 8.28407 4.22836 8.64805C4.37913 9.01203 4.6001 9.34274 4.87868 9.62132C5.15726 9.8999 5.48797 10.1209 5.85195 10.2716C6.21593 10.4224 6.60603 10.5 7 10.5C7.39397 10.5 7.78407 10.4224 8.14805 10.2716C8.51203 10.1209 8.84274 9.8999 9.12132 9.62132C9.3999 9.34274 9.62087 9.01203 9.77164 8.64805C9.9224 8.28407 10 7.89397 10 7.5V4.5"
    stroke="url(#paint0_linear_4019_625)" stroke-width="2" stroke-linecap="round" stroke-linejoin="round"/>
  <path
    d="M17.2178 3.50684C18.2975 3.57852 19.2522 4.17985 19.9209 5.07129C20.6301 6.01692 21 7.25252 21 8.5L20.9961 8.7334C20.953 9.90057 20.5859 11.0421 19.9209 11.9287C19.419 12.5977 18.756 13.1028 18 13.3438V21.5C18 22.0523 17.5523 22.5 17 22.5C16.4477 22.5 16 22.0523 16 21.5V13.3428C15.2441 13.1019 14.5809 12.5976 14.0791 11.9287C13.3699 10.9831 13 9.74748 13 8.5C13 7.25252 13.3699 6.01692 14.0791 5.07129C14.7924 4.12037 15.8312 3.5 17 3.5L17.2178 3.50684ZM17 5.5C16.5777 5.5 16.0906 5.72238 15.6787 6.27148C15.2627 6.82615 15 7.62574 15 8.5C15 9.37426 15.2627 10.1739 15.6787 10.7285C16.0906 11.2776 16.5777 11.5 17 11.5L17.1611 11.4893C17.5429 11.4392 17.9609 11.209 18.3213 10.7285C18.7373 10.1739 19 9.37426 19 8.5L18.9883 8.17578C18.9323 7.42956 18.6853 6.75678 18.3213 6.27148C17.9609 5.79102 17.5429 5.56082 17.1611 5.51074L17 5.5Z"
    fill="url(#paint1_linear_4019_625)"/>
  <defs>
    <linearGradient id="paint0_linear_4019_625" x1="10" y1="4.5" x2="-0.0914706" y2="10.6058"
                    gradientUnits="userSpaceOnUse">
      <stop stop-color="#FFA347"/>
      <stop offset="1" stop-color="#EB802F"/>
    </linearGradient>
    <linearGradient id="paint1_linear_4019_625" x1="21" y1="3.5" x2="8.91523" y2="12.2228"
                    gradientUnits="userSpaceOnUse">
      <stop stop-color="#FFA347"/>
      <stop offset="1" stop-color="#EB802F"/>
    </linearGradient>
  </defs>
</svg>
