<svg width="56" height="56" viewBox="0 0 56 56" fill="none" xmlns="http://www.w3.org/2000/svg">
  <rect width="56" height="56" rx="28" fill="#6699FF"/>
  <path
    d="M31.1585 21.3275C30.9385 21.115 30.6438 20.9974 30.3379 21C30.032 21.0027 29.7393 21.1254 29.523 21.3417C29.3067 21.558 29.184 21.8506 29.1814 22.1565C29.1787 22.4624 29.2963 22.7571 29.5088 22.9772L33.3507 26.819H19.8337C19.5242 26.819 19.2275 26.9419 19.0087 27.1607C18.7899 27.3795 18.667 27.6762 18.667 27.9857C18.667 28.2951 18.7899 28.5918 19.0087 28.8106C19.2275 29.0294 19.5242 29.1523 19.8337 29.1523H33.3507L29.5088 32.9942C29.3974 33.1018 29.3085 33.2305 29.2474 33.3729C29.1862 33.5152 29.154 33.6683 29.1527 33.8232C29.1514 33.9781 29.1809 34.1317 29.2395 34.2751C29.2982 34.4185 29.3848 34.5487 29.4944 34.6583C29.6039 34.7678 29.7342 34.8545 29.8775 34.9131C30.0209 34.9718 30.1746 35.0013 30.3295 35C30.4844 34.9986 30.6375 34.9664 30.7798 34.9053C30.9221 34.8441 31.0509 34.7553 31.1585 34.6438L36.9918 28.8105C37.2105 28.5917 37.3334 28.295 37.3334 27.9857C37.3334 27.6763 37.2105 27.3796 36.9918 27.1608L31.1585 21.3275Z"
    fill="white"/>
</svg>
