<svg width="24" height="25" viewBox="0 0 24 25" fill="none" xmlns="http://www.w3.org/2000/svg">
  <path
    d="M7 11.5V19.5C7 19.7652 6.89464 20.0196 6.70711 20.2071C6.51957 20.3946 6.26522 20.5 6 20.5H4C3.73478 20.5 3.48043 20.3946 3.29289 20.2071C3.10536 20.0196 3 19.7652 3 19.5V12.5C3 12.2348 3.10536 11.9804 3.29289 11.7929C3.48043 11.6054 3.73478 11.5 4 11.5H7ZM7 11.5C8.06087 11.5 9.07828 11.0786 9.82843 10.3284C10.5786 9.57828 11 8.56087 11 7.5V6.5C11 5.96957 11.2107 5.46086 11.5858 5.08579C11.9609 4.71071 12.4696 4.5 13 4.5C13.5304 4.5 14.0391 4.71071 14.4142 5.08579C14.7893 5.46086 15 5.96957 15 6.5V11.5H18C18.5304 11.5 19.0391 11.7107 19.4142 12.0858C19.7893 12.4609 20 12.9696 20 13.5L19 18.5C18.8562 19.1135 18.5834 19.6402 18.2227 20.001C17.8619 20.3617 17.4328 20.5368 17 20.5H10C9.20435 20.5 8.44129 20.1839 7.87868 19.6213C7.31607 19.0587 7 18.2956 7 17.5"
    stroke="url(#paint0_linear_4020_408)" stroke-width="2" stroke-linecap="round" stroke-linejoin="round"/>
  <defs>
    <linearGradient id="paint0_linear_4020_408" x1="1.77881" y1="12.5001" x2="21.3494" y2="12.5001"
                    gradientUnits="userSpaceOnUse">
      <stop stop-color="#80C4E6"/>
      <stop offset="1" stop-color="#4991C9"/>
    </linearGradient>
  </defs>
</svg>
