<svg width="24" height="25" viewBox="0 0 24 25" fill="none" xmlns="http://www.w3.org/2000/svg">
  <path
    d="M3 7.5C3 6.96957 3.21071 6.46086 3.58579 6.08579C3.96086 5.71071 4.46957 5.5 5 5.5H19C19.5304 5.5 20.0391 5.71071 20.4142 6.08579C20.7893 6.46086 21 6.96957 21 7.5V17.5C21 18.0304 20.7893 18.5391 20.4142 18.9142C20.0391 19.2893 19.5304 19.5 19 19.5H5C4.46957 19.5 3.96086 19.2893 3.58579 18.9142C3.21071 18.5391 3 18.0304 3 17.5V7.5Z"
    stroke="url(#paint0_linear_4020_767)" stroke-width="2" stroke-linecap="round" stroke-linejoin="round"/>
  <path d="M6 12.5H16" stroke="url(#paint1_linear_4020_767)" stroke-width="2" stroke-linecap="round"/>
  <path d="M6 15.5H15" stroke="url(#paint2_linear_4020_767)" stroke-width="2" stroke-linecap="round"/>
  <path d="M6 8.5H6.01" stroke="url(#paint3_linear_4020_767)" stroke-width="2" stroke-linecap="round"
        stroke-linejoin="round"/>
  <path d="M9 8.5H9.01" stroke="url(#paint4_linear_4020_767)" stroke-width="2" stroke-linecap="round"
        stroke-linejoin="round"/>
  <defs>
    <linearGradient id="paint0_linear_4020_767" x1="3" y1="5.5" x2="3" y2="19.5" gradientUnits="userSpaceOnUse">
      <stop stop-color="#EE7BF4"/>
      <stop offset="1" stop-color="#D845E6"/>
    </linearGradient>
    <linearGradient id="paint1_linear_4020_767" x1="6" y1="12.5" x2="6" y2="13.5" gradientUnits="userSpaceOnUse">
      <stop stop-color="#EE7BF4"/>
      <stop offset="1" stop-color="#D845E6"/>
    </linearGradient>
    <linearGradient id="paint2_linear_4020_767" x1="6" y1="15.5" x2="6" y2="16.5" gradientUnits="userSpaceOnUse">
      <stop stop-color="#EE7BF4"/>
      <stop offset="1" stop-color="#D845E6"/>
    </linearGradient>
    <linearGradient id="paint3_linear_4020_767" x1="6" y1="8.5" x2="6" y2="9.5" gradientUnits="userSpaceOnUse">
      <stop stop-color="#EE7BF4"/>
      <stop offset="1" stop-color="#D845E6"/>
    </linearGradient>
    <linearGradient id="paint4_linear_4020_767" x1="9" y1="8.5" x2="9" y2="9.5" gradientUnits="userSpaceOnUse">
      <stop stop-color="#EE7BF4"/>
      <stop offset="1" stop-color="#D845E6"/>
    </linearGradient>
  </defs>
</svg>
