<svg xmlns="http://www.w3.org/2000/svg" width="16" height="16" viewBox="0 0 16 16" fill="none">
  <path d="M6.39972 5.73338L13.3331 12.6667M6.39972 10.2666L13.3331 3.33331" stroke="currentColor" stroke-width="1.5"
        stroke-linecap="round" stroke-linejoin="round"/>
  <path
    d="M2.66669 4.66669C2.66669 5.19712 2.8774 5.70583 3.25247 6.0809C3.62755 6.45597 4.13625 6.66669 4.66669 6.66669C5.19712 6.66669 5.70583 6.45597 6.0809 6.0809C6.45597 5.70583 6.66669 5.19712 6.66669 4.66669C6.66669 4.13625 6.45597 3.62755 6.0809 3.25247C5.70583 2.8774 5.19712 2.66669 4.66669 2.66669C4.13625 2.66669 3.62755 2.8774 3.25247 3.25247C2.8774 3.62755 2.66669 4.13625 2.66669 4.66669Z"
    stroke="currentColor" stroke-width="1.5" stroke-linecap="round" stroke-linejoin="round"/>
  <path
    d="M2.66669 11.3333C2.66669 11.8637 2.8774 12.3725 3.25247 12.7475C3.62755 13.1226 4.13625 13.3333 4.66669 13.3333C5.19712 13.3333 5.70583 13.1226 6.0809 12.7475C6.45597 12.3725 6.66669 11.8637 6.66669 11.3333C6.66669 10.8029 6.45597 10.2942 6.0809 9.9191C5.70583 9.54403 5.19712 9.33331 4.66669 9.33331C4.13625 9.33331 3.62755 9.54403 3.25247 9.9191C2.8774 10.2942 2.66669 10.8029 2.66669 11.3333Z"
    stroke="currentColor" stroke-width="1.5" stroke-linecap="round" stroke-linejoin="round"/>
</svg>