<svg width="16" height="16" viewBox="0 0 16 16" fill="none" xmlns="http://www.w3.org/2000/svg">
  <path
    d="M12.7457 1.89551C13.1368 1.93496 13.442 2.26555 13.442 2.66699V13.334C13.4417 13.7617 13.0944 14.1084 12.6666 14.1084H4.66663C4.10777 14.1082 3.57161 13.8863 3.17639 13.4912C2.83056 13.1454 2.617 12.6914 2.56897 12.209L2.55823 12V4C2.55831 3.44111 2.78128 2.90505 3.17639 2.50977C3.57163 2.11453 4.1077 1.89177 4.66663 1.8916H12.6666L12.7457 1.89551ZM4.66663 11.417C4.51215 11.4172 4.36376 11.4786 4.25452 11.5879C4.18412 11.6584 4.13602 11.7458 4.10901 11.8398V12L4.11975 12.1094C4.14119 12.2167 4.19355 12.317 4.27209 12.3955C4.37663 12.5 4.51886 12.5584 4.66663 12.5586H11.8922V11.417H4.66663ZM4.66663 3.44238C4.51878 3.44255 4.37665 3.50091 4.27209 3.60547C4.16767 3.71007 4.10909 3.85219 4.10901 4V9.99414C4.28911 9.94397 4.47636 9.91705 4.66663 9.91699H11.8922V3.44238H4.66663Z"
    fill="#828899"/>
  <path d="M6 5.33331H10" stroke="#828899" stroke-width="1.5" stroke-linecap="round" stroke-linejoin="round"/>
</svg>
