<svg width="16" height="16" viewBox="0 0 16 16" fill="none" xmlns="http://www.w3.org/2000/svg">
  <path
    d="M6.00004 2.66669V14.6667M8.66671 5.33335H10M8.66671 8.00002H10M4.00004 2.66669H11.3334C11.687 2.66669 12.0261 2.80716 12.2762 3.05721C12.5262 3.30726 12.6667 3.6464 12.6667 4.00002V12C12.6667 12.3536 12.5262 12.6928 12.2762 12.9428C12.0261 13.1929 11.687 13.3334 11.3334 13.3334H4.00004C3.82323 13.3334 3.65366 13.2631 3.52864 13.1381C3.40361 13.0131 3.33337 12.8435 3.33337 12.6667V3.33335C3.33337 3.15654 3.40361 2.98697 3.52864 2.86195C3.65366 2.73693 3.82323 2.66669 4.00004 2.66669Z"
    stroke="currentColor" stroke-width="1.33333" stroke-linecap="round" stroke-linejoin="round"/>
</svg>
