<svg width="16" height="16" viewBox="0 0 16 16" fill="none" xmlns="http://www.w3.org/2000/svg">
  <path
    d="M2.4021 4.79801L7.16077 2.72534C7.23929 2.69168 7.32376 2.67409 7.40919 2.67359C7.49462 2.6731 7.57929 2.68971 7.6582 2.72246C7.7371 2.7552 7.80866 2.80341 7.86864 2.86425C7.92862 2.92508 7.97581 2.99731 8.00744 3.07667L11.2901 11.0113C11.3583 11.1722 11.3607 11.3535 11.2966 11.5161C11.2325 11.6787 11.1071 11.8096 10.9474 11.8807L6.18944 13.9533C6.11088 13.9871 6.02635 14.0048 5.94085 14.0053C5.85534 14.0059 5.77059 13.9893 5.69161 13.9565C5.61262 13.9238 5.541 13.8755 5.48097 13.8146C5.42094 13.7538 5.37372 13.6815 5.3421 13.602L2.05944 5.66667C1.99121 5.50578 1.98888 5.32452 2.05297 5.16193C2.11706 4.99933 2.24244 4.86908 2.4021 4.79801Z"
    stroke="currentColor" stroke-width="1.33333" stroke-linecap="round" stroke-linejoin="round"/>
  <path
    d="M10 2.66669H10.6667C10.8435 2.66669 11.013 2.73693 11.1381 2.86195C11.2631 2.98697 11.3333 3.15654 11.3333 3.33335V5.66669"
    stroke="currentColor" stroke-width="1.33333" stroke-linecap="round" stroke-linejoin="round"/>
  <path
    d="M13.3334 4C13.5094 4.07467 13.68 4.14467 13.8454 4.21C14.0081 4.27906 14.1367 4.40993 14.203 4.57383C14.2693 4.73773 14.2677 4.92124 14.1987 5.084L12.6667 8.66667"
    stroke="currentColor" stroke-width="1.33333" stroke-linecap="round" stroke-linejoin="round"/>
</svg>
