<svg width="56" height="56" viewBox="0 0 56 56" fill="none" xmlns="http://www.w3.org/2000/svg">
  <rect width="56" height="56" rx="28" fill="white"/>
  <path
    d="M31.1582 21.3275C30.9382 21.115 30.6435 20.9974 30.3376 21C30.0317 21.0027 29.7391 21.1254 29.5228 21.3417C29.3065 21.558 29.1838 21.8506 29.1811 22.1565C29.1785 22.4624 29.2961 22.7571 29.5086 22.9772L33.3504 26.819H19.8334C19.524 26.819 19.2272 26.9419 19.0085 27.1607C18.7897 27.3795 18.6667 27.6762 18.6667 27.9857C18.6667 28.2951 18.7897 28.5918 19.0085 28.8106C19.2272 29.0294 19.524 29.1523 19.8334 29.1523H33.3504L29.5086 32.9942C29.3972 33.1018 29.3083 33.2305 29.2471 33.3729C29.186 33.5152 29.1538 33.6683 29.1525 33.8232C29.1511 33.9781 29.1806 34.1317 29.2393 34.2751C29.298 34.4185 29.3846 34.5487 29.4941 34.6583C29.6037 34.7678 29.7339 34.8545 29.8773 34.9131C30.0207 34.9718 30.1743 35.0013 30.3292 35C30.4841 34.9986 30.6372 34.9664 30.7796 34.9053C30.9219 34.8441 31.0506 34.7553 31.1582 34.6438L36.9916 28.8105C37.2103 28.5917 37.3332 28.295 37.3332 27.9857C37.3332 27.6763 37.2103 27.3796 36.9916 27.1608L31.1582 21.3275Z"
    fill="#181D29"/>
</svg>
