<svg width="16" height="16" viewBox="0 0 16 16" fill="none" xmlns="http://www.w3.org/2000/svg">
  <path
    d="M10 2.66669L14 4.00002V7.33335H12V12.6667C12 12.8435 11.9298 13.0131 11.8047 13.1381C11.6797 13.2631 11.5101 13.3334 11.3333 13.3334H4.66667C4.48986 13.3334 4.32029 13.2631 4.19526 13.1381C4.07024 13.0131 4 12.8435 4 12.6667V7.33335H2V4.00002L6 2.66669C6 3.19712 6.21071 3.70583 6.58579 4.0809C6.96086 4.45597 7.46957 4.66669 8 4.66669C8.53043 4.66669 9.03914 4.45597 9.41421 4.0809C9.78929 3.70583 10 3.19712 10 2.66669Z"
    stroke="#9365E6" stroke-width="1.5" stroke-linecap="round" stroke-linejoin="round"/>
  <path d="M7 7.33331H8.66667L7.66667 10.6666" stroke="#9365E6" stroke-width="1.5" stroke-linecap="round"
        stroke-linejoin="round"/>
</svg>
