<svg width="16" height="16" viewBox="0 0 16 16" fill="none" xmlns="http://www.w3.org/2000/svg">
  <path
    d="M9.99931 8.60003C10.7014 8.7429 11.4308 8.65576 12.0794 8.35155C12.7281 8.04733 13.2615 7.54221 13.6005 6.91107C13.9395 6.27992 14.0662 5.55633 13.9617 4.84754C13.8572 4.13875 13.5272 3.48249 13.0204 2.97602C12.5137 2.46954 11.8573 2.13981 11.1484 2.03569C10.4396 1.93158 9.71607 2.05862 9.0851 2.39798C8.45412 2.73735 7.94928 3.27098 7.6454 3.91979C7.34151 4.56859 7.25475 5.29804 7.39798 6.00003"
    stroke="#9365E6" stroke-width="1.5" stroke-linecap="round" stroke-linejoin="round"/>
  <path
    d="M9.99969 8.6L7.39836 6.00067L2.38969 11.7233C2.1395 11.9733 1.99884 12.3123 1.99866 12.666C1.99856 12.8411 2.03296 13.0145 2.09988 13.1763C2.16681 13.3381 2.26494 13.4851 2.38869 13.609C2.51244 13.7329 2.65938 13.8312 2.82111 13.8983C2.98285 13.9654 3.15622 13.9999 3.33132 14C3.68495 14.0002 4.02417 13.8599 4.27436 13.61L9.99969 8.6Z"
    stroke="#9365E6" stroke-width="1.5" stroke-linecap="round" stroke-linejoin="round"/>
</svg>
