<svg width="16" height="16" viewBox="0 0 16 16" fill="none" xmlns="http://www.w3.org/2000/svg">
  <path
    d="M8 10C8 10.3536 8.14048 10.6928 8.39052 10.9428C8.64057 11.1929 8.97971 11.3334 9.33333 11.3334C9.68696 11.3334 10.0261 11.1929 10.2761 10.9428C10.5262 10.6928 10.6667 10.3536 10.6667 10C10.6667 9.6464 10.5262 9.30726 10.2761 9.05721C10.0261 8.80716 9.68696 8.66669 9.33333 8.66669C8.97971 8.66669 8.64057 8.80716 8.39052 9.05721C8.14048 9.30726 8 9.6464 8 10Z"
    stroke="#9365E6" stroke-width="1.33333" stroke-linecap="round" stroke-linejoin="round"/>
  <path fill-rule="evenodd" clip-rule="evenodd"
        d="M4 14.6666H12C12.5304 14.6666 13.0391 14.4559 13.4142 14.0809C13.7893 13.7058 14 13.1971 14 12.6666V8.78665C14 8.16568 13.8553 7.5532 13.5776 6.9978L12.9483 5.73917C12.7631 5.36892 12.6667 4.96061 12.6667 4.54665V3.33331C12.6667 2.80288 12.456 2.29417 12.0809 1.9191C11.7058 1.54403 11.1971 1.33331 10.6667 1.33331H5.33333C4.8029 1.33331 4.29419 1.54403 3.91912 1.9191C3.54405 2.29417 3.33333 2.80288 3.33333 3.33331V5.17593L2.4224 6.9978C2.14467 7.55319 2.00004 8.16564 2 8.7866V12.6666C2 13.1971 2.21071 13.7058 2.58579 14.0809C2.96086 14.4559 3.46957 14.6666 4 14.6666ZM4.86193 2.86191C4.98695 2.73688 5.15652 2.66665 5.33333 2.66665H10.6667C10.8435 2.66665 11.013 2.73688 11.1381 2.86191C11.2631 2.98693 11.3333 3.1565 11.3333 3.33331V4.54665C11.3334 5.1676 11.478 5.78007 11.7557 6.33546L12.385 7.59412C12.5702 7.96437 12.6666 8.37268 12.6667 8.78665V12.6666C12.6667 12.8435 12.5964 13.013 12.4714 13.1381C12.3464 13.2631 12.1768 13.3333 12 13.3333H5.88562C5.96062 13.1212 6 12.8959 6 12.6666V8.78665C5.99996 8.16569 5.85535 7.55322 5.57762 6.99784L4.66667 5.17593V3.33331C4.66667 3.1565 4.7369 2.98693 4.86193 2.86191ZM4 6.82403L3.61495 7.59412C3.4298 7.96437 3.33337 8.37268 3.33333 8.78665V12.6666C3.33333 12.8435 3.40357 13.013 3.5286 13.1381C3.65362 13.2631 3.82319 13.3333 4 13.3333C4.17681 13.3333 4.34638 13.2631 4.4714 13.1381C4.59643 13.013 4.66667 12.8435 4.66667 12.6666V8.78669C4.66663 8.37273 4.57022 7.96441 4.38507 7.59416L4 6.82403Z"
        fill="#9365E6"/>
  <path d="M7.33337 4.66669H8.66671" stroke="#9365E6" stroke-width="1.33333" stroke-linecap="round"
        stroke-linejoin="round"/>
</svg>
