<svg width="16" height="16" viewBox="0 0 16 16" fill="none" xmlns="http://www.w3.org/2000/svg">
  <path
    d="M4.33337 4.99998C4.33337 5.17679 4.40361 5.34636 4.52864 5.47138C4.65366 5.59641 4.82323 5.66665 5.00004 5.66665C5.17685 5.66665 5.34642 5.59641 5.47145 5.47138C5.59647 5.34636 5.66671 5.17679 5.66671 4.99998C5.66671 4.82317 5.59647 4.6536 5.47145 4.52858C5.34642 4.40355 5.17685 4.33331 5.00004 4.33331C4.82323 4.33331 4.65366 4.40355 4.52864 4.52858C4.40361 4.6536 4.33337 4.82317 4.33337 4.99998Z"
    stroke="#9365E6" stroke-width="1.5" stroke-linecap="round" stroke-linejoin="round"/>
  <path
    d="M2 4V7.448C2.00008 7.80159 2.1406 8.14068 2.39067 8.39067L7.53067 13.5307C7.83197 13.8319 8.24059 14.0012 8.66667 14.0012C9.09274 14.0012 9.50137 13.8319 9.80267 13.5307L13.5307 9.80267C13.8319 9.50137 14.0012 9.09274 14.0012 8.66667C14.0012 8.24059 13.8319 7.83197 13.5307 7.53067L8.39067 2.39067C8.14068 2.1406 7.80159 2.00008 7.448 2H4C3.46957 2 2.96086 2.21071 2.58579 2.58579C2.21071 2.96086 2 3.46957 2 4Z"
    stroke="#9365E6" stroke-width="1.5" stroke-linecap="round" stroke-linejoin="round"/>
</svg>
