<svg xmlns="http://www.w3.org/2000/svg" width="16" height="16" viewBox="0 0 16 16" fill="none">
  <path
    d="M6.66709 2.1333C5.62423 2.37506 4.66504 2.89143 3.88901 3.62886C3.11298 4.36628 2.54838 5.2979 2.25378 6.32709C1.95917 7.35627 1.94528 8.44553 2.21355 9.48189C2.48182 10.5183 3.02248 11.464 3.77945 12.2209C4.53643 12.9779 5.48214 13.5186 6.5185 13.7868C7.55486 14.0551 8.64412 14.0412 9.67331 13.7466C10.7025 13.452 11.6341 12.8874 12.3715 12.1114C13.109 11.3354 13.6253 10.3762 13.8671 9.3333C13.8671 9.15649 13.7969 8.98692 13.6718 8.8619C13.5468 8.73687 13.3772 8.66664 13.2004 8.66664H8.66709C8.31347 8.66664 7.97433 8.52616 7.72428 8.27611C7.47423 8.02606 7.33376 7.68692 7.33376 7.3333V2.66663C7.32547 2.58765 7.30159 2.5111 7.2635 2.44141C7.22541 2.37173 7.17386 2.3103 7.11184 2.26069C7.04983 2.21108 6.97859 2.17427 6.90224 2.15241C6.82589 2.13054 6.74596 2.12404 6.66709 2.1333Z"
    stroke="#9365E6" stroke-width="1.5" stroke-linecap="round" stroke-linejoin="round"/>
  <path
    d="M10 2.33331C10.8465 2.63137 11.6153 3.11551 12.2499 3.75009C12.8845 4.38466 13.3686 5.1535 13.6667 5.99998H10.6667C10.4899 5.99998 10.3203 5.92974 10.1953 5.80472C10.0702 5.67969 10 5.51012 10 5.33331V2.33331Z"
    stroke="#9365E6" stroke-width="1.5" stroke-linecap="round" stroke-linejoin="round"/>
</svg>