<svg width="16" height="16" viewBox="0 0 16 16" fill="none" xmlns="http://www.w3.org/2000/svg">
  <path
    d="M4.66663 2.66669V14M2.66663 2.66669V4.66669C2.66663 4.92933 2.71836 5.1894 2.81887 5.43205C2.91938 5.67471 3.0667 5.89518 3.25241 6.0809C3.43813 6.26662 3.65861 6.41394 3.90126 6.51445C4.14391 6.61496 4.40398 6.66669 4.66663 6.66669C4.92927 6.66669 5.18934 6.61496 5.43199 6.51445C5.67464 6.41394 5.89512 6.26662 6.08084 6.0809C6.26656 5.89518 6.41388 5.67471 6.51439 5.43205C6.61489 5.1894 6.66663 4.92933 6.66663 4.66669V2.66669"
    stroke="#9365E6" stroke-width="1.5" stroke-linecap="round" stroke-linejoin="round"/>
  <path
    d="M11.4791 2.00488C12.1988 2.05277 12.8351 2.45365 13.2809 3.04785C13.7537 3.67826 14.0006 4.50236 14.0006 5.33398L13.9889 5.64453C13.9353 6.36789 13.6946 7.06755 13.2809 7.61914C12.9649 8.04032 12.5529 8.36325 12.0836 8.5332V14C12.0836 14.4142 11.7478 14.75 11.3336 14.75C10.9196 14.7498 10.5836 14.4141 10.5836 14V8.5332C10.1145 8.36313 9.70224 8.04029 9.38635 7.61914C8.91366 6.98889 8.66675 6.16541 8.66663 5.33398C8.66663 4.50249 8.91372 3.67822 9.38635 3.04785C9.86185 2.414 10.5546 2.00012 11.3336 2L11.4791 2.00488ZM11.3336 3.33398C11.0522 3.3341 10.7272 3.48188 10.4528 3.84766C10.1756 4.21742 10.0006 4.75134 10.0006 5.33398C10.0007 5.91657 10.1755 6.4497 10.4528 6.81934C10.6492 7.08121 10.872 7.23044 11.0856 7.29492C11.1635 7.26749 11.2464 7.25004 11.3336 7.25C11.42 7.25 11.5025 7.26706 11.5797 7.29395C11.7939 7.23006 12.0174 7.08194 12.2145 6.81934C12.4917 6.4497 12.6665 5.91657 12.6666 5.33398L12.6588 5.11719C12.6214 4.61987 12.457 4.17111 12.2145 3.84766C11.9743 3.52749 11.6955 3.3742 11.441 3.34082L11.3336 3.33398Z"
    fill="#9365E6"/>
</svg>
