<svg width="1440" height="509" viewBox="0 0 1440 509" fill="none" xmlns="http://www.w3.org/2000/svg">
  <path
    d="M488.805 190.446C498.988 118.954 551.152 75.6875 632.078 75.6875C721.401 75.6875 766.956 128.554 766.956 203.088V328.088C766.956 367.738 770.564 389.98 776.532 406.814H696.819C692.638 395.997 690.817 380.38 690.21 362.938C663.842 400.188 624.255 415.805 585.917 415.805C522.963 415.805 478.015 384.572 478.015 322.646C478.015 278.771 502.596 245.746 551.759 229.487C594.313 215.054 635.686 211.471 689.637 210.862V203.054C689.637 161.579 669.844 139.337 627.29 139.337C590.738 139.337 570.945 159.787 566.157 190.412H488.839L488.805 190.446ZM605.676 358.713C653.018 358.713 689.603 320.246 689.603 272.18V258.354C580.521 260.146 555.333 286.005 555.333 318.455C555.333 343.097 574.519 358.713 605.676 358.713Z"
    fill="url(#paint0_linear_4062_7526)"/>
  <path
    d="M814.87 538.981V84.6795H891.582V121.321C911.948 91.8793 940.744 75.6543 976.116 75.6543C1060.04 75.6543 1111.6 139.946 1111.6 245.105C1111.6 350.263 1058.86 415.772 976.116 415.772C940.744 415.772 911.375 400.764 891.582 371.897V538.947H814.87V538.981ZM891.615 245.138C891.615 313.655 917.377 352.089 962.358 352.089C1007.34 352.089 1032.49 314.23 1032.49 245.138C1032.49 176.047 1007.31 139.371 962.358 139.371C917.411 139.371 891.615 176.621 891.615 245.138Z"
    fill="url(#paint1_linear_4062_7526)"/>
  <path
    d="M1152.37 190.446C1162.55 118.954 1214.71 75.6875 1295.64 75.6875C1384.96 75.6875 1430.52 128.554 1430.52 203.088V328.088C1430.52 367.738 1434.12 389.98 1440.09 406.814H1360.38C1356.2 395.997 1354.38 380.38 1353.77 362.938C1327.4 400.188 1287.82 415.805 1249.48 415.805C1186.52 415.805 1141.58 384.572 1141.58 322.646C1141.58 278.771 1166.16 245.746 1215.32 229.487C1257.87 215.054 1299.25 211.471 1353.2 210.862V203.054C1353.2 161.579 1333.4 139.337 1290.85 139.337C1254.3 139.337 1234.51 159.787 1229.72 190.412H1152.4L1152.37 190.446ZM1269.27 358.713C1316.61 358.713 1353.2 320.246 1353.2 272.18V258.354C1244.12 260.146 1218.93 286.005 1218.93 318.455C1218.93 343.097 1238.11 358.713 1269.27 358.713Z"
    fill="url(#paint2_linear_4062_7526)"/>
  <path fill-rule="evenodd" clip-rule="evenodd"
        d="M99.9859 322.412C107.337 323.257 114.924 323.696 122.645 323.696C141.09 323.696 160.647 321.262 180.98 316.395C178.316 371.831 174.809 406.782 174.809 406.782H93.8827C93.8827 406.782 97.2546 374.366 99.9859 322.412ZM183.806 173.897L183.812 174.493L183.88 174.46C183.981 186.595 183.981 198.459 183.88 209.986C162.67 218.571 140.989 223.033 119.948 223.033C117.655 223.033 115.429 223 113.17 222.864C110.034 222.594 106.595 222.121 103.223 221.377C103.425 202.752 103.425 183.248 103.122 163.102C103.056 157.115 102.925 151.095 102.793 145.012L102.785 144.623C85.1883 148.428 71.3067 158.6 66.3351 179.023C57.8378 216.746 72.8429 237.433 111.89 240.881C161.147 243.31 211.23 223.015 251.365 190.881C236.577 180.649 221.109 171.68 205.36 164.15C199.147 161.201 191.723 158.09 183.576 155.183C183.576 155.186 183.576 155.189 183.576 155.192C183.674 161.48 183.74 167.735 183.806 173.897ZM100.221 78.3811C99.918 72.4024 99.5473 66.4236 99.1429 60.3773C98.6148 52.3167 98.3068 44.2199 97.998 36.101C97.5181 23.4854 97.0362 10.8164 95.7232 -1.85254H174.809C177.035 20.5245 178.788 42.9353 180.137 65.0082L180.169 65.5499C180.529 71.6524 180.887 77.7238 181.182 83.7953C199.09 88.2952 216.526 94.5214 232.976 101.481C256.399 111.763 279.027 124.244 300.34 138.719C305.195 131.724 309.61 124.532 313.531 117.199C332.819 80.6587 341.687 39.3187 339.259 -1.85239H416.949C416.645 11.4995 415.566 24.9189 413.644 38.2032C406.977 90.9958 385.47 140.326 353.736 181.947C394.806 221.472 427.166 269.869 445.172 324.913C453.5 351.11 458.356 378.828 459.064 406.748H373.082C376.685 341.529 347.283 281.6 302.917 234.892C269.55 262.604 230.652 283.668 188.837 295.674C148.813 307.066 102.111 311.528 60.9737 293.646C23.4103 277.793 -0.496658 240.408 0.144009 198.899C-1.13733 151.271 21.6232 105.74 67.4478 87.2502C78.1882 82.9594 89.1514 80.0778 100.221 78.3811ZM373.082 406.748H373.08V406.782C373.08 406.771 373.081 406.76 373.082 406.748Z"
        fill="url(#paint3_linear_4062_7526)"/>
  <defs>
    <linearGradient id="paint0_linear_4062_7526" x1="627.273" y1="415.805" x2="627.273" y2="75.6875"
                    gradientUnits="userSpaceOnUse">
      <stop stop-color="#172580" stop-opacity="0"/>
      <stop offset="0.2" stop-color="#172580" stop-opacity="0.1"/>
      <stop offset="0.597751" stop-color="#5C7DFF" stop-opacity="0.8"/>
      <stop offset="0.834015" stop-color="#5C7DFF" stop-opacity="0.8"/>
      <stop offset="1" stop-color="#5C7DFF" stop-opacity="0.8"/>
    </linearGradient>
    <linearGradient id="paint1_linear_4062_7526" x1="963.235" y1="538.981" x2="963.235" y2="75.6543"
                    gradientUnits="userSpaceOnUse">
      <stop stop-color="#172580" stop-opacity="0"/>
      <stop offset="0.2" stop-color="#172580" stop-opacity="0.1"/>
      <stop offset="0.597751" stop-color="#5C7DFF" stop-opacity="0.8"/>
      <stop offset="0.834015" stop-color="#5C7DFF" stop-opacity="0.8"/>
      <stop offset="1" stop-color="#5C7DFF" stop-opacity="0.8"/>
    </linearGradient>
    <linearGradient id="paint2_linear_4062_7526" x1="1290.83" y1="415.805" x2="1290.83" y2="75.6875"
                    gradientUnits="userSpaceOnUse">
      <stop stop-color="#172580" stop-opacity="0"/>
      <stop offset="0.2" stop-color="#172580" stop-opacity="0.1"/>
      <stop offset="0.597751" stop-color="#5C7DFF" stop-opacity="0.8"/>
      <stop offset="0.834015" stop-color="#5C7DFF" stop-opacity="0.8"/>
      <stop offset="1" stop-color="#5C7DFF" stop-opacity="0.8"/>
    </linearGradient>
    <linearGradient id="paint3_linear_4062_7526" x1="229.578" y1="406.782" x2="229.578" y2="-1.85254"
                    gradientUnits="userSpaceOnUse">
      <stop stop-color="#172580" stop-opacity="0"/>
      <stop offset="0.2" stop-color="#172580" stop-opacity="0.1"/>
      <stop offset="0.597751" stop-color="#5C7DFF" stop-opacity="0.8"/>
      <stop offset="0.834015" stop-color="#5C7DFF" stop-opacity="0.8"/>
      <stop offset="1" stop-color="#5C7DFF" stop-opacity="0.8"/>
    </linearGradient>
  </defs>
</svg>
