<svg width="32" height="32" viewBox="0 0 32 32" fill="none" xmlns="http://www.w3.org/2000/svg">
  <path d="M16 4C25.6 4 28 6.4 28 16C28 25.6 25.6 28 16 28C6.4 28 4 25.6 4 16C4 6.4 6.4 4 16 4Z" fill="#6699FF"/>
  <path fill-rule="evenodd" clip-rule="evenodd"
        d="M17.3312 12.0003C17.3312 11.2639 16.7343 10.667 15.9979 10.667C15.2615 10.667 14.6646 11.2639 14.6646 12.0003V14.6669H11.9998C11.2635 14.6669 10.6665 15.2638 10.6665 16.0002C10.6665 16.7366 11.2635 17.3335 11.9998 17.3335H14.6646V20.0003C14.6646 20.7367 15.2615 21.3337 15.9979 21.3337C16.7343 21.3337 17.3312 20.7367 17.3312 20.0003V17.3335H19.9998C20.7362 17.3335 21.3332 16.7366 21.3332 16.0002C21.3332 15.2638 20.7362 14.6669 19.9998 14.6669H17.3312V12.0003Z"
        fill="white"/>
</svg>
