<svg width="40" height="40" viewBox="0 0 40 40" fill="none" xmlns="http://www.w3.org/2000/svg">
  <path
    d="M13.3335 11.6667C13.3335 13.4348 14.0359 15.1305 15.2861 16.3807C16.5364 17.631 18.2321 18.3333 20.0002 18.3333C21.7683 18.3333 23.464 17.631 24.7142 16.3807C25.9645 15.1305 26.6668 13.4348 26.6668 11.6667C26.6668 9.89856 25.9645 8.20286 24.7142 6.95262C23.464 5.70238 21.7683 5 20.0002 5C18.2321 5 16.5364 5.70238 15.2861 6.95262C14.0359 8.20286 13.3335 9.89856 13.3335 11.6667Z"
    stroke="#6699FF" stroke-width="2.5" stroke-linecap="round" stroke-linejoin="round"/>
  <path d="M10 35V31.6667C10 29.8986 10.7024 28.2029 11.9526 26.9526C13.2029 25.7024 14.8986 25 16.6667 25H23.3333"
        stroke="#6699FF" stroke-width="2.5" stroke-linecap="round" stroke-linejoin="round"/>
  <path d="M25 31.6668L28.3333 35.0002L35 28.3335" stroke="#F5690F" stroke-width="2.5" stroke-linecap="round"
        stroke-linejoin="round"/>
</svg>
