<svg width="40" height="40" viewBox="0 0 40 40" fill="none" xmlns="http://www.w3.org/2000/svg">
  <path
    d="M31.6671 13.333V21.6663C31.6671 23.8765 30.7891 25.9961 29.2263 27.5589C27.6635 29.1217 25.5439 29.9997 23.3337 29.9997H18.3337M18.3337 29.9997L23.3337 24.9997M18.3337 29.9997L23.3337 34.9997"
    stroke="#6699FF" stroke-width="2.5" stroke-linecap="round" stroke-linejoin="round"/>
  <path
    d="M8.33374 26.6667V18.3333C8.33374 16.1232 9.21171 14.0036 10.7745 12.4408C12.3373 10.878 14.4569 10 16.6671 10H21.6671M21.6671 10L16.6671 5M21.6671 10L16.6671 15"
    stroke="#6699FF" stroke-width="2.5" stroke-linecap="round" stroke-linejoin="round"/>
  <path
    d="M5 30.0003C5 30.8844 5.35119 31.7322 5.97631 32.3573C6.60143 32.9825 7.44928 33.3337 8.33333 33.3337C9.21739 33.3337 10.0652 32.9825 10.6904 32.3573C11.3155 31.7322 11.6667 30.8844 11.6667 30.0003C11.6667 29.1163 11.3155 28.2684 10.6904 27.6433C10.0652 27.0182 9.21739 26.667 8.33333 26.667C7.44928 26.667 6.60143 27.0182 5.97631 27.6433C5.35119 28.2684 5 29.1163 5 30.0003Z"
    stroke="#F5690F" stroke-width="2.5" stroke-linecap="round" stroke-linejoin="round"/>
  <path
    d="M28.3337 10.0003C28.3337 10.8844 28.6849 11.7322 29.3101 12.3573C29.9352 12.9825 30.783 13.3337 31.6671 13.3337C32.5511 13.3337 33.399 12.9825 34.0241 12.3573C34.6492 11.7322 35.0004 10.8844 35.0004 10.0003C35.0004 9.11627 34.6492 8.26842 34.0241 7.6433C33.399 7.01818 32.5511 6.66699 31.6671 6.66699C30.783 6.66699 29.9352 7.01818 29.3101 7.6433C28.6849 8.26842 28.3337 9.11627 28.3337 10.0003Z"
    stroke="#F5690F" stroke-width="2.5" stroke-linecap="round" stroke-linejoin="round"/>
</svg>
