<svg width="40" height="40" viewBox="0 0 40 40" fill="none" xmlns="http://www.w3.org/2000/svg">
  <path
    d="M13.3335 11.6667C13.3335 13.4348 14.0359 15.1305 15.2861 16.3807C16.5364 17.631 18.2321 18.3333 20.0002 18.3333C21.7683 18.3333 23.464 17.631 24.7142 16.3807C25.9645 15.1305 26.6668 13.4348 26.6668 11.6667C26.6668 9.89856 25.9645 8.20286 24.7142 6.95262C23.464 5.70238 21.7683 5 20.0002 5C18.2321 5 16.5364 5.70238 15.2861 6.95262C14.0359 8.20286 13.3335 9.89856 13.3335 11.6667Z"
    stroke="#6699FF" stroke-width="2.5" stroke-linecap="round" stroke-linejoin="round"/>
  <path d="M10 35V31.6667C10 29.8986 10.7024 28.2029 11.9526 26.9526C13.2029 25.7024 14.8986 25 16.6667 25H17.5"
        stroke="#6699FF" stroke-width="2.5" stroke-linecap="round" stroke-linejoin="round"/>
  <path
    d="M29.6671 34.695L26.0471 36.5916C25.9396 36.6475 25.8188 36.6725 25.698 36.6637C25.5772 36.6549 25.4612 36.6127 25.363 36.5418C25.2649 36.4709 25.1883 36.3742 25.1419 36.2623C25.0955 36.1504 25.0812 36.0279 25.1004 35.9083L25.7921 31.89L22.8637 29.045C22.7763 28.9605 22.7144 28.8531 22.6851 28.7351C22.6558 28.6171 22.6603 28.4933 22.698 28.3777C22.7357 28.2621 22.8052 28.1595 22.8984 28.0815C22.9917 28.0035 23.105 27.9533 23.2254 27.9366L27.2721 27.35L29.0821 23.695C29.1362 23.5861 29.2196 23.4945 29.323 23.4305C29.4263 23.3664 29.5455 23.3325 29.6671 23.3325C29.7886 23.3325 29.9078 23.3664 30.0112 23.4305C30.1145 23.4945 30.1979 23.5861 30.2521 23.695L32.0621 27.35L36.1087 27.9366C36.2288 27.9539 36.3416 28.0044 36.4345 28.0825C36.5273 28.1606 36.5965 28.263 36.6341 28.3784C36.6717 28.4937 36.6764 28.6172 36.6474 28.735C36.6185 28.8528 36.5572 28.9602 36.4704 29.045L33.5421 31.89L34.2321 35.9066C34.2528 36.0264 34.2395 36.1496 34.1937 36.2622C34.1479 36.3748 34.0715 36.4723 33.973 36.5436C33.8746 36.615 33.7582 36.6573 33.6369 36.6658C33.5157 36.6743 33.3945 36.6486 33.2871 36.5916L29.6671 34.695Z"
    stroke="#F5690F" stroke-width="2.5" stroke-linecap="round" stroke-linejoin="round"/>
</svg>
