<svg width="25" height="25" viewBox="0 0 25 25" fill="none" xmlns="http://www.w3.org/2000/svg">
  <path
    d="M12.672 3.875C19.872 3.875 21.672 5.675 21.672 12.875C21.672 20.075 19.872 21.875 12.672 21.875C5.472 21.875 3.672 20.075 3.672 12.875C3.672 5.675 5.472 3.875 12.672 3.875Z"
    fill="#F5690F"/>
  <path fill-rule="evenodd" clip-rule="evenodd"
        d="M13.6721 9.875C13.6721 9.32272 13.2243 8.875 12.6721 8.875C12.1198 8.875 11.6721 9.32272 11.6721 9.875V11.875H9.67224C9.11996 11.875 8.67224 12.3227 8.67224 12.875C8.67224 13.4273 9.11996 13.875 9.67224 13.875H11.6721V15.875C11.6721 16.4273 12.1198 16.875 12.6721 16.875C13.2243 16.875 13.6721 16.4273 13.6721 15.875V13.875H15.6722C16.2245 13.875 16.6722 13.4273 16.6722 12.875C16.6722 12.3227 16.2245 11.875 15.6722 11.875H13.6721V9.875Z"
        fill="white"/>
</svg>
