<svg width="40" height="40" viewBox="0 0 40 40" fill="none" xmlns="http://www.w3.org/2000/svg">
  <path d="M11.6665 10H29.9998" stroke="#F5690F" stroke-width="2.5" stroke-linecap="round" stroke-linejoin="round"/>
  <path d="M10.8335 28.3335H29.1668" stroke="#F5690F" stroke-width="2.5" stroke-linecap="round"
        stroke-linejoin="round"/>
  <path
    d="M10 33.3333V30C10 27.3478 11.0536 24.8043 12.9289 22.9289C14.8043 21.0536 17.3478 20 20 20C22.6522 20 25.1957 21.0536 27.0711 22.9289C28.9464 24.8043 30 27.3478 30 30V33.3333C30 33.7754 29.8244 34.1993 29.5118 34.5118C29.1993 34.8244 28.7754 35 28.3333 35H11.6667C11.2246 35 10.8007 34.8244 10.4882 34.5118C10.1756 34.1993 10 33.7754 10 33.3333Z"
    stroke="black" stroke-width="2.5" stroke-linecap="round" stroke-linejoin="round"/>
  <path
    d="M10 33.3333V30C10 27.3478 11.0536 24.8043 12.9289 22.9289C14.8043 21.0536 17.3478 20 20 20C22.6522 20 25.1957 21.0536 27.0711 22.9289C28.9464 24.8043 30 27.3478 30 30V33.3333C30 33.7754 29.8244 34.1993 29.5118 34.5118C29.1993 34.8244 28.7754 35 28.3333 35H11.6667C11.2246 35 10.8007 34.8244 10.4882 34.5118C10.1756 34.1993 10 33.7754 10 33.3333Z"
    stroke="#6699FF" stroke-width="2.5" stroke-linecap="round" stroke-linejoin="round"/>
  <path
    d="M10 6.66667V10C10 12.6522 11.0536 15.1957 12.9289 17.0711C14.8043 18.9464 17.3478 20 20 20C22.6522 20 25.1957 18.9464 27.0711 17.0711C28.9464 15.1957 30 12.6522 30 10V6.66667C30 6.22464 29.8244 5.80072 29.5118 5.48816C29.1993 5.17559 28.7754 5 28.3333 5H11.6667C11.2246 5 10.8007 5.17559 10.4882 5.48816C10.1756 5.80072 10 6.22464 10 6.66667Z"
    stroke="#6699FF" stroke-width="2.5" stroke-linecap="round" stroke-linejoin="round"/>
</svg>
