<svg width="40" height="40" viewBox="0 0 40 40" fill="none" xmlns="http://www.w3.org/2000/svg">
  <path
    d="M8.3335 11.6667C8.3335 13.4348 9.03587 15.1305 10.2861 16.3807C11.5364 17.631 13.2321 18.3333 15.0002 18.3333C16.7683 18.3333 18.464 17.631 19.7142 16.3807C20.9645 15.1305 21.6668 13.4348 21.6668 11.6667C21.6668 9.89856 20.9645 8.20286 19.7142 6.95262C18.464 5.70238 16.7683 5 15.0002 5C13.2321 5 11.5364 5.70238 10.2861 6.95262C9.03587 8.20286 8.3335 9.89856 8.3335 11.6667Z"
    stroke="#6699FF" stroke-width="2.5" stroke-linecap="round" stroke-linejoin="round"/>
  <path
    d="M5 35V31.6667C5 29.8986 5.70238 28.2029 6.95262 26.9526C8.20286 25.7024 9.89856 25 11.6667 25H18.3333C19.9333 25 21.4 25.5633 22.55 26.5017"
    stroke="#6699FF" stroke-width="2.5" stroke-linecap="round" stroke-linejoin="round"/>
  <path
    d="M26.6665 5.2168C28.1005 5.58397 29.3716 6.41797 30.2792 7.58731C31.1869 8.75666 31.6796 10.1948 31.6796 11.6751C31.6796 13.1554 31.1869 14.5936 30.2792 15.7629C29.3716 16.9323 28.1005 17.7663 26.6665 18.1335"
    stroke="#6699FF" stroke-width="2.5" stroke-linecap="round" stroke-linejoin="round"/>
  <path d="M26.6665 31.6665H36.6665M31.6665 26.6665V36.6665" stroke="#F5690F" stroke-width="2.5" stroke-linecap="round"
        stroke-linejoin="round"/>
</svg>
