<svg xmlns="http://www.w3.org/2000/svg" width="24" height="24" viewBox="0 0 24 24" fill="none">
  <path
    d="M6 9C6 10.5913 6.63214 12.1174 7.75736 13.2426C8.88258 14.3679 10.4087 15 12 15C13.5913 15 15.1174 14.3679 16.2426 13.2426C17.3679 12.1174 18 10.5913 18 9C18 7.4087 17.3679 5.88258 16.2426 4.75736C15.1174 3.63214 13.5913 3 12 3C10.4087 3 8.88258 3.63214 7.75736 4.75736C6.63214 5.88258 6 7.4087 6 9Z"
    stroke="#6699FF" stroke-width="2" stroke-linecap="round" stroke-linejoin="round"/>
  <path d="M12 15L15.4 20.89L16.998 17.657L20.596 17.889L17.196 12" stroke="#6699FF" stroke-width="2"
        stroke-linecap="round" stroke-linejoin="round"/>
  <path d="M6.80186 12L3.40186 17.89L6.99986 17.657L8.59786 20.889L11.9979 15" stroke="#6699FF" stroke-width="2"
        stroke-linecap="round" stroke-linejoin="round"/>
</svg>